<svg width="32" height="32" viewBox="0 0 32 32" fill="none" xmlns="http://www.w3.org/2000/svg">
<path opacity="0.4" d="M27.4398 11.1185C27.4398 12.9174 25.9815 14.3757 24.1827 14.3757C22.3838 14.3757 20.9255 12.9174 20.9255 11.1185C20.9255 9.31962 22.3838 7.86133 24.1827 7.86133C25.9815 7.86133 27.4398 9.31962 27.4398 11.1185Z" fill="#42B061"/>
<path opacity="0.4" d="M11.8054 11.1185C11.8054 12.9174 10.3471 14.3757 8.5482 14.3757C6.74931 14.3757 5.29102 12.9174 5.29102 11.1185C5.29102 9.31962 6.74931 7.86133 8.5482 7.86133C10.3471 7.86133 11.8054 9.31962 11.8054 11.1185Z" fill="#42B061"/>
<path d="M27.7968 23.4958C28.7731 23.4958 29.5496 22.8815 30.2469 22.0224C31.6741 20.2639 29.3307 18.8586 28.4371 18.1704C27.5285 17.4708 26.514 17.0745 25.4856 16.9814M24.1827 14.3757C25.9816 14.3757 27.4399 12.9174 27.4399 11.1185C27.4399 9.31962 25.9816 7.86133 24.1827 7.86133" stroke="#42B061" stroke-width="1.95431" stroke-linecap="round"/>
<path d="M4.93395 23.4958C3.95771 23.4958 3.18121 22.8815 2.48402 22.0224C1.05677 20.2639 3.40009 18.8586 4.29384 18.1704C5.20236 17.4708 6.21679 17.0745 7.2453 16.9814M7.89674 14.3757C6.09785 14.3757 4.63956 12.9174 4.63956 11.1185C4.63956 9.31962 6.09785 7.86133 7.89674 7.86133" stroke="#42B061" stroke-width="1.95431" stroke-linecap="round"/>
<path opacity="0.4" d="M11.2631 19.7317C9.93191 20.5548 6.44146 22.2357 8.56738 24.3389C9.60587 25.3664 10.7625 26.1012 12.2166 26.1012H20.5143C21.9685 26.1012 23.125 25.3664 24.1635 24.3389C26.2894 22.2357 22.799 20.5548 21.4678 19.7317C18.346 17.8014 14.385 17.8014 11.2631 19.7317Z" fill="#42B061"/>
<path d="M11.2631 19.7317C9.93191 20.5548 6.44146 22.2357 8.56738 24.3389C9.60587 25.3664 10.7625 26.1012 12.2166 26.1012H20.5143C21.9685 26.1012 23.125 25.3664 24.1635 24.3389C26.2894 22.2357 22.799 20.5548 21.4678 19.7317C18.346 17.8014 14.385 17.8014 11.2631 19.7317Z" stroke="#42B061" stroke-width="1.95431" stroke-linecap="round" stroke-linejoin="round"/>
<path d="M20.9255 9.81543C20.9255 12.3339 18.8839 14.3755 16.3654 14.3755C13.847 14.3755 11.8054 12.3339 11.8054 9.81543C11.8054 7.29697 13.847 5.25537 16.3654 5.25537C18.8839 5.25537 20.9255 7.29697 20.9255 9.81543Z" stroke="#42B061" stroke-width="1.95431"/>
</svg>
