<svg width="32" height="32" viewBox="0 0 32 32" fill="none" xmlns="http://www.w3.org/2000/svg">
<g opacity="0.4">
<path d="M5.87073 6.45428L7.47049 5.52031C9.22275 4.4973 10.0992 3.98565 11.0642 3.95386V23.5204C10.0369 23.5775 9.147 24.0989 8.23913 24.6307L8.07816 24.7249C6.38657 25.7125 5.54069 26.2064 4.84983 26.0823C4.39012 25.9998 3.97431 25.7507 3.67758 25.3801C3.23166 24.8234 3.23166 23.823 3.23166 21.8221V11.1164C3.23166 9.59363 3.23166 8.83223 3.58557 8.20701C3.9395 7.58177 4.58325 7.20595 5.87073 6.45428Z" fill="#477BFF"/>
<path d="M27.3348 27.4041L20.1681 27.4037L20.2809 7.99512H24.0776C26.5343 7.99512 27.7627 7.99512 28.5259 8.78018C29.2891 9.56524 29.2891 10.8288 29.2891 13.3559V25.4498C29.2891 26.5291 28.4141 27.4041 27.3348 27.4041Z" fill="#477BFF"/>
</g>
<path d="M7.47049 5.51067L5.87073 6.43869C4.58325 7.18555 3.9395 7.55899 3.58557 8.18024C3.23166 8.80148 3.23166 9.55803 3.23166 11.0711V21.7086C3.23166 23.6966 3.23166 24.6907 3.67758 25.2439C3.97431 25.6121 4.39012 25.8595 4.84983 25.9416C5.54069 26.0649 6.38654 25.5742 8.07818 24.5929C9.22691 23.9265 10.3325 23.2344 11.7067 23.4221C12.3318 23.5075 12.928 23.804 14.1205 24.3969L19.0896 26.8676C20.1643 27.402 20.1742 27.4044 21.3695 27.4044H24.0776C26.5343 27.4044 27.7627 27.4044 28.5259 26.6243C29.2891 25.8443 29.2891 24.5887 29.2891 22.0778V13.2962C29.2891 10.7852 29.2891 9.52972 28.5259 8.74966C27.7627 7.9696 26.5343 7.9696 24.0776 7.9696H21.3695C20.1742 7.9696 20.1643 7.9673 19.0896 7.43287L14.7489 5.27457C12.9366 4.37343 12.0304 3.92286 11.065 3.95416C10.0997 3.98548 9.22327 4.49388 7.47049 5.51067Z" stroke="#477BFF" stroke-width="1.95431" stroke-linecap="round" stroke-linejoin="round"/>
<path d="M20.169 8.5127V26.7529" stroke="#477BFF" stroke-width="1.95431" stroke-linecap="round" stroke-linejoin="round" stroke-dasharray="1.3 3.91"/>
<path d="M11.0489 4.60425V22.8445" stroke="#477BFF" stroke-width="1.95431" stroke-linecap="round" stroke-linejoin="round" stroke-dasharray="1.3 3.91"/>
</svg>
