<svg width="36" height="41" viewBox="0 0 36 41" fill="none" xmlns="http://www.w3.org/2000/svg">
<g clip-path="url(#clip0_199_67)">
<path d="M5.38047 14.5922C5.09207 14.7643 4.93927 15.0463 5.04257 15.2184C5.14588 15.3928 5.46656 15.3928 5.75495 15.2228C6.04335 15.0506 6.19616 14.7686 6.09285 14.5965C5.98954 14.4221 5.66887 14.42 5.38047 14.5922Z" fill="#573F2F"/>
<path d="M30.6173 14.5922C30.9057 14.7643 31.0585 15.0463 30.9552 15.2184C30.8519 15.3928 30.5312 15.3928 30.2428 15.2228C29.9544 15.0506 29.8016 14.7686 29.9049 14.5965C30.0082 14.4221 30.3267 14.42 30.6173 14.5922Z" fill="#573F2F"/>
<path d="M15.5325 0.232631C15.5325 0.232631 15.4442 0.269218 15.4701 0.409112C15.4959 0.551158 15.257 0.443547 15.257 0.400503C15.257 0.357459 15.186 0.454308 15.2118 0.480135C15.2376 0.505961 15.3173 0.542549 15.3538 0.602811C15.3883 0.665225 15.3452 0.779292 15.3087 0.744857C15.2742 0.710421 15.158 0.701812 15.1752 0.736248C15.1924 0.770683 15.2807 0.781444 15.3517 0.90412C15.4227 1.0268 15.3431 1.03756 15.3431 1.03756C15.3431 1.03756 15.2376 1.00312 15.2376 1.05477C15.2376 1.10643 15.2548 1.16023 15.3173 1.19682C15.3797 1.23126 15.511 1.33887 15.582 1.33887C15.653 1.33887 15.6272 1.43572 15.6272 1.43572C15.6272 1.43572 15.4937 1.3733 15.4679 1.46154C15.4421 1.54978 15.5303 1.62081 15.5303 1.62081C15.5303 1.62081 15.752 1.78007 15.8402 1.79729C15.9285 1.8145 15.9823 1.93072 15.9285 1.93933C15.8747 1.94794 15.7154 1.95655 15.6638 1.94794C15.61 1.93933 15.5497 2.04479 15.6014 2.08999C15.6552 2.13518 15.823 2.19545 15.9737 2.23203C16.1243 2.26647 16.0964 2.32888 16.0619 2.3461C16.0275 2.36332 15.7972 2.3913 15.7434 2.3461C15.6896 2.3009 15.5583 2.39991 15.681 2.47093C15.8058 2.54195 16.0339 2.50536 16.0167 2.64741C15.9995 2.78946 15.8833 2.73565 15.8316 2.74426C15.7778 2.75287 15.7068 2.8325 15.8058 2.8863C15.9027 2.94011 16.0878 3.04557 16.1868 3.04557C16.2858 3.04557 16.3116 3.19622 16.2578 3.19622C16.204 3.19622 16.0017 3.179 15.9931 3.16179C15.9844 3.14457 15.808 3.16179 15.9844 3.29522C16.1609 3.4179 16.0555 3.37486 16.2233 3.43727C16.3912 3.49968 16.2233 3.59653 16.1975 3.58792C16.1717 3.57932 16.0469 3.67617 16.1631 3.7106C16.2771 3.74719 16.3654 3.79884 16.3309 3.83543C16.2965 3.86986 16.1889 3.96887 16.3137 3.99469C16.4386 4.02052 16.6237 4.0485 16.5526 4.14535C16.4816 4.2422 16.5785 4.19054 16.7033 4.23359C16.8281 4.27878 16.7119 4.37563 16.6688 4.36702C16.6237 4.35842 16.3417 4.21637 16.3159 4.296C16.2901 4.37563 16.3331 4.40146 16.3331 4.40146C16.3331 4.40146 16.5354 4.43589 16.6258 4.50692C16.714 4.57794 16.7313 4.64035 16.6258 4.64035C16.5203 4.64035 16.4751 4.5349 16.4127 4.59516C16.3503 4.65757 16.4838 4.75442 16.4386 4.8771C16.3934 5.00193 16.3137 4.92229 16.3137 4.75442C16.3137 4.58655 16.1717 4.45311 16.1717 4.45311C16.1717 4.45311 16.1179 4.58655 16.1179 4.37348C16.1179 4.16041 15.9931 4.26802 15.9931 4.33905C15.9931 4.41007 16.0727 4.53274 16.0103 4.56072C15.9479 4.58655 15.78 4.31322 15.78 4.21637C15.78 4.11952 15.6379 4.1023 15.6379 4.21637C15.6379 4.33044 15.709 4.5887 15.7972 4.7372C15.8854 4.88571 16.0447 5.08156 15.9651 5.12675C15.8854 5.17195 15.8144 5.18056 15.8144 5.10093C15.8144 5.0213 15.5131 4.31322 15.3646 4.13674C15.214 3.96026 15.2053 3.96887 15.2053 4.08293C15.2053 4.197 15.4787 4.51553 15.4184 4.70277C15.356 4.88786 15.2936 4.70277 15.285 4.70277C15.2764 4.70277 15.1429 4.17333 14.8782 3.82682C14.6135 3.48247 14.6135 3.71275 14.6845 3.80099C14.7555 3.88923 15.0289 4.23359 14.9944 4.45526C14.96 4.67694 14.889 4.57794 14.8696 4.47248C14.8524 4.36702 14.6049 3.69554 14.2864 3.42866C13.9678 3.16394 14.0216 3.42005 14.0927 3.46525C14.1637 3.51045 14.4994 3.8548 14.508 4.16256C14.5166 4.47248 14.4112 4.26802 14.3832 4.20776C14.3574 4.14535 14.2325 3.62451 13.8624 3.31459C13.49 3.00468 13.6859 3.39423 13.6859 3.34042C13.6859 3.28662 14.0754 3.70199 14.0754 3.96887C14.0754 4.23574 13.9614 4.13674 13.9528 4.08293C13.9442 4.02913 13.7849 3.5621 13.4922 3.36625C13.1995 3.17255 13.2189 3.11874 13.1112 3.15318C13.0058 3.18761 12.9434 3.16179 12.9089 3.09937C12.8745 3.03696 12.5732 2.9315 12.6873 3.15318C12.8013 3.37486 12.5108 3.10798 12.5022 3.09937C12.4936 3.09076 12.1298 2.92289 12.2547 3.09937C12.3773 3.27585 12.8379 3.36409 12.8379 3.58577C12.8379 3.80745 12.9175 3.83328 12.7583 3.72782C12.599 3.62236 12.5108 3.28662 12.1384 3.1704C11.7661 3.05633 12.1384 3.3727 12.1298 3.32966C12.1212 3.28446 12.4398 3.51475 12.2719 3.55995C12.104 3.60299 12.0782 3.44588 12.0244 3.36625C11.9706 3.28662 11.7597 3.10153 11.7059 3.18116C11.652 3.26079 11.7683 3.29522 11.6886 3.29522C11.609 3.29522 11.3873 3.21559 11.3959 3.36625C11.4045 3.5169 11.3249 3.42866 11.2711 3.42866C11.2173 3.42866 11.1291 3.45449 11.1377 3.50829C11.1463 3.5621 10.9698 3.50829 10.9698 3.57071C10.9698 3.63312 11.058 3.65895 11.1118 3.66756C11.1656 3.67617 11.2087 3.7106 11.1118 3.80099C11.015 3.88923 11.0494 4.0485 11.1656 4.0033C11.2797 3.9581 11.3787 3.88923 11.4842 3.88923C11.5896 3.88923 11.6176 3.86341 11.5638 3.94304C11.51 4.02267 11.4497 4.11952 11.5638 4.11952C11.6779 4.11952 11.9964 3.84619 12.0674 3.95165C12.1384 4.05711 12.1384 4.08508 12.0502 4.15396C11.962 4.22498 12.0416 4.30461 12.1836 4.28739C12.3257 4.27017 12.5452 4.12813 12.67 4.19915C12.7927 4.27017 12.7045 4.28739 12.6442 4.32398C12.5818 4.35842 12.5022 4.45742 12.6098 4.45742C12.7174 4.45742 12.8035 4.42298 12.9907 4.43159C13.1758 4.4402 13.0962 4.32613 13.193 4.41437C13.2899 4.50261 13.3523 4.50261 13.2275 4.55642C13.1026 4.61022 13.0596 4.74151 13.2102 4.7329C13.3609 4.72429 13.5202 4.61022 13.7139 4.63605C13.9076 4.66188 13.9162 4.67909 13.8365 4.75873C13.7569 4.83836 13.6342 4.82975 13.6342 4.91799C13.6342 5.00623 13.7677 5.00623 13.8193 4.98901C13.8731 4.97179 14.0216 4.90077 14.0927 4.90077C14.1637 4.90077 14.2347 4.90938 14.1723 4.9804C14.1099 5.05143 14.0668 5.01484 14.0216 5.08586C13.9764 5.15688 13.9764 5.18271 14.1099 5.19132C14.2433 5.19993 14.4542 5.1741 14.4908 5.19132C14.5252 5.20854 14.7039 5.20854 14.6156 5.24513C14.5274 5.28171 14.3229 5.38717 14.4392 5.413C14.5554 5.43882 14.6781 5.4668 14.8201 5.44743C14.9621 5.43022 15.0934 5.51846 15.0138 5.54428C14.9342 5.57011 14.8373 5.64974 15.0224 5.64974C15.2075 5.64974 15.3237 5.64974 15.3237 5.72076C15.3237 5.79179 15.2096 5.74659 15.1558 5.86281C15.102 5.97688 15.5174 6.33199 15.7219 6.65052C15.9242 6.96905 15.907 6.73015 15.8359 6.85283C15.7649 6.9755 15.6229 6.93246 15.5798 6.827C15.5346 6.72154 15.4378 6.5343 15.1731 6.27819C14.9083 6.02207 14.9256 5.99625 14.8911 5.99625C14.8567 5.99625 14.7857 6.06727 14.8997 6.19855C15.0138 6.33199 15.2979 6.52569 15.3495 6.75598C15.4033 6.98626 15.1817 6.87004 15.1731 6.81839C15.1645 6.76459 15.0224 6.42023 14.6867 6.11892C14.3509 5.81761 14.0496 5.809 14.1744 5.95105C14.2993 6.0931 14.7405 6.32338 14.7943 6.61393C14.8481 6.90663 14.6264 6.73876 14.6178 6.68495C14.6092 6.63115 14.4241 6.26958 14.1056 6.0479C13.787 5.82622 13.5847 5.8542 13.673 6.0027C13.7612 6.15336 13.6192 6.09955 13.5933 6.07373C13.5675 6.0479 13.3372 5.88864 13.2748 5.92307C13.2124 5.95751 13.1694 5.96827 13.221 6.06512C13.2748 6.16197 13.1328 6.09955 13.0079 6.05651C12.8831 6.01346 12.7346 5.95966 12.7346 6.07373C12.7346 6.18779 12.5323 6.03929 12.4785 6.02853C12.4247 6.01992 12.0179 5.92307 12.0179 6.0027C12.0179 6.08233 12.1858 6.18779 12.0179 6.1964C11.8501 6.20501 11.665 6.23084 11.7532 6.32984C11.8414 6.42669 12.0803 6.2954 12.3365 6.63976C12.5926 6.98411 12.2396 6.77319 12.231 6.77319C12.2224 6.77319 12.0976 6.5881 11.9297 6.51708C11.7618 6.44606 11.5853 6.35782 11.4088 6.3406C11.2324 6.32338 11.0817 6.42023 11.241 6.49125C11.4002 6.56228 11.736 6.57949 11.9125 6.79256C12.0889 7.00563 11.6908 6.85498 11.6564 6.78395C11.6219 6.71293 11.1786 6.6333 11.1786 6.6333C11.1786 6.6333 10.5071 6.62469 10.9763 6.79256C11.4454 6.96044 11.6843 7.12831 11.2496 7.00563C10.817 6.88296 10.1347 6.90017 10.4447 7.03146C10.7546 7.1649 10.3198 7.08526 10.251 7.09387C10.1799 7.10248 9.97763 7.1649 10.1175 7.34999C10.2596 7.53508 9.92382 7.38442 10.1003 7.45544C10.2768 7.52647 9.87002 7.6061 10.1627 7.62332C10.4554 7.64053 9.73013 7.79119 9.90661 7.80841C10.0831 7.82562 9.6053 8.13554 9.96041 8.05591C10.3134 7.97628 9.99485 8.08174 10.1283 8.15276C10.2617 8.22378 10.2703 7.97628 10.322 7.96767C10.3758 7.95906 10.5243 7.68573 10.5243 7.88804C10.5243 8.09035 10.4361 8.21517 10.7008 7.93323C10.9655 7.6513 10.9031 7.84499 10.8859 7.94184C10.8686 8.03869 10.8859 8.14415 10.9827 8.08389C11.0796 8.02148 11.0279 8.30557 11.1334 8.16352C11.2388 8.02148 11.2216 7.83639 11.3464 7.75675C11.4713 7.67712 11.5939 7.58888 11.5143 7.79119C11.4347 7.9935 11.4691 8.18935 11.665 7.90526C11.8587 7.62332 11.9383 7.5609 11.8952 7.72877C11.8501 7.89665 11.878 8.0473 12.0179 7.84284C12.16 7.64053 12.2826 7.58673 12.203 7.76321C12.1234 7.93969 12.2568 7.85145 12.3365 7.81702C12.4161 7.78258 12.4613 7.77397 12.4333 7.88804C12.4075 8.00211 12.655 7.6061 12.726 7.52647C12.797 7.44684 13.0359 7.21655 12.8315 7.63193C12.6292 8.0473 12.9821 7.72017 12.9821 7.72017C12.9821 7.72017 13.5568 7.16274 13.3437 7.55229C13.1306 7.94184 13.2382 7.97628 13.4061 7.8536C13.574 7.73093 13.787 7.32416 13.6622 7.6513C13.5395 7.97843 13.5826 8.04945 13.7849 7.83639C13.9872 7.62332 14.4219 7.10248 14.2627 7.57166C14.1034 8.04085 14.4392 7.66851 14.493 7.6061C14.5468 7.54368 14.8201 7.40379 14.607 7.67712C14.394 7.95045 14.7835 7.78258 14.8631 7.72017C14.9428 7.65775 15.2247 7.40164 15.0224 7.73738C14.8201 8.07313 14.9514 7.95906 15.1731 7.84284C15.3947 7.72878 15.4206 7.84284 15.3151 7.98489C15.2097 8.12693 15.1128 7.9483 15.2096 8.19796C15.3065 8.44546 15.0762 8.31202 14.9794 8.33139C14.8825 8.34861 15.0676 8.44546 14.8459 8.49066C14.6242 8.53585 13.97 8.55307 14.3423 8.72955C14.7146 8.90603 14.2455 8.76399 14.1917 8.81779C14.1378 8.8716 13.8903 8.90603 14.0324 8.96845C14.1744 9.03086 13.8731 9.07391 13.8107 9.0653C13.7483 9.05669 13.0596 9.19013 13.4298 9.23317C13.8021 9.27837 14.5532 9.08251 14.6049 9.27837C14.6587 9.47206 14.2433 9.34939 14.1271 9.34939C14.0109 9.34939 12.4742 9.44624 13.1285 9.51726C13.7827 9.58828 13.8538 9.50865 13.9248 9.57107C13.9958 9.63348 13.589 9.65931 13.4642 9.65931C13.3394 9.65931 12.457 9.78413 12.8185 9.81857C13.1801 9.85301 13.1457 9.88959 12.9068 9.94125C12.6679 9.99505 12.2611 10.1349 12.7217 10.1543C13.1823 10.1737 13.7655 10.1887 13.2081 10.2878C12.6507 10.3846 12.6335 10.2426 12.3149 10.3502C11.9964 10.4556 11.8285 10.5266 12.7927 10.5353C13.7569 10.5439 12.9262 10.6063 12.952 10.6407C12.9778 10.6751 12.2353 10.6493 11.8737 10.7914C11.5122 10.9334 11.6886 10.9958 11.581 11.0841C11.4756 11.1723 11.2281 11.3768 11.7833 11.2864C12.3408 11.1981 11.5703 11.4801 11.5014 11.4801C11.4325 11.4801 10.6792 12.0805 11.6348 11.6652C12.5904 11.2498 11.9878 11.5855 11.9275 11.7104C11.8651 11.833 11.1054 12.0375 11.1054 12.0375C11.1054 12.0375 11.0344 12.214 11.256 12.1602C11.4777 12.1064 11.6456 11.8503 11.7597 11.9665C11.8737 12.0805 11.538 12.143 11.2733 12.2678C11.0085 12.3905 10.619 12.7628 11.3873 12.4443C12.1557 12.1257 11.5122 12.5239 11.4497 12.5583C11.3873 12.5928 10.9892 12.681 10.8493 12.9393C10.7072 13.1954 10.7696 13.3998 10.9547 13.275C11.1398 13.1523 11.157 13.1782 11.0688 13.3374C10.9806 13.4967 10.9354 13.7786 10.9978 13.841C11.0602 13.9035 11.1484 13.9917 11.1829 13.6818C11.2173 13.3719 11.3249 13.4257 11.3249 13.5677C11.3249 13.7098 11.4218 13.6215 11.4497 13.4171C11.4756 13.2126 11.609 13.2492 11.609 13.3546C11.609 13.4601 11.68 13.5483 11.7338 13.1868C11.7876 12.8252 11.8479 12.8058 11.8673 12.9651C11.8845 13.1244 11.9899 13.4257 12.0351 12.9393C12.0803 12.4529 12.1492 12.4787 12.1772 12.6659C12.203 12.851 12.2913 12.9673 12.3537 12.5325C12.4161 12.0999 12.3989 11.7534 12.4871 12.1709C12.5753 12.5863 12.6636 12.0913 12.6636 11.9148C12.6636 11.7383 12.7884 11.5253 12.7884 11.7728C12.7884 12.0203 12.9219 12.2678 13.0617 11.8072C13.2038 11.3466 13.2124 11.1895 13.2124 11.5059C13.2124 11.8223 13.3631 11.6114 13.3803 11.4973C13.3975 11.3832 13.5654 10.4901 13.645 11.0991C13.7246 11.7082 13.8215 11.196 13.8129 11.0539C13.8043 10.9119 13.9721 10.277 13.9807 10.9119C13.9893 11.5489 14.1938 10.8237 14.183 10.7892C14.1744 10.7526 14.2627 10.0811 14.3509 10.63C14.4392 11.1788 14.5274 10.5955 14.5188 10.5331C14.5102 10.4707 14.7319 9.74539 14.6867 10.3738C14.6415 11.0023 14.8287 10.5245 14.8287 10.4449C14.8287 10.3652 14.9708 9.81642 14.9794 10.2426C14.988 10.6665 15.13 10.0575 15.13 10.0833C15.13 10.1091 15.1838 10.0747 15.2183 9.86161C15.2527 9.64855 15.3323 9.80781 15.3323 9.90681C15.3323 10.0058 15.1903 10.2684 15.4206 10.1457C15.6509 10.023 15.5088 10.1715 15.5174 10.2684C15.526 10.3652 15.9328 10.0209 16.1545 9.96707C16.3761 9.91327 16.5074 10.0123 16.2083 10.0897C15.907 10.1694 15.4033 10.4965 15.3323 10.6106C15.2613 10.7246 15.2096 10.9205 15.3495 10.8581C15.4916 10.7957 15.4378 10.9119 15.3754 10.9549C15.313 11.0001 15.102 11.3875 15.4206 11.168C15.7391 10.9463 15.5002 10.9829 15.95 10.8237C16.402 10.6644 16.0555 10.9119 15.9156 10.9743C15.7735 11.0367 15.2527 11.2476 15.0396 11.5037C14.8266 11.7599 15.0568 11.734 15.0848 11.7168C15.1106 11.6996 15.3323 11.4241 15.6422 11.3014C15.9522 11.1766 15.9608 11.168 15.9156 11.3101C15.8704 11.4521 15.6336 11.4069 15.4744 11.5317C15.3151 11.6544 15.0418 11.8137 14.9083 12.0612C14.7749 12.3087 14.7663 12.2742 14.9342 12.2828C15.102 12.2915 15.3947 11.734 15.6595 11.6996C15.9242 11.6652 15.7305 11.8589 15.6939 11.8589C15.6573 11.8589 15.526 11.8675 15.3582 12.0009C15.1903 12.1343 14.988 12.2398 14.9083 12.4249C14.8287 12.61 14.8201 12.4787 15.0504 12.4787C15.2807 12.4787 15.201 12.1774 15.483 12.1343C15.7649 12.0892 15.6681 12.3022 15.5884 12.3194C15.5088 12.3367 15.0396 12.4873 14.8201 12.8403C14.5984 13.1932 14.9621 13.0081 14.9621 13.0081C14.9621 13.0081 15.1214 12.7434 15.4227 12.6186C15.724 12.4959 15.5196 12.7154 15.5454 12.7241C15.5712 12.7327 15.0246 12.8919 14.7491 13.2987C14.4757 13.7055 14.8545 13.5376 14.8825 13.4666C14.9083 13.3955 15.1128 13.0856 15.3603 13.0254C15.6078 12.9629 15.4658 13.176 15.4055 13.2384C15.3431 13.3008 14.9019 13.3719 14.7082 13.7679C14.5145 14.166 14.8502 13.8905 14.8502 13.8905C14.8502 13.8905 14.9751 13.5462 15.2914 13.501C15.61 13.4558 15.5045 13.501 15.3173 13.6603C15.1322 13.8195 14.8136 13.996 14.805 14.1897C14.7964 14.3834 14.7598 14.5082 14.9385 14.3318C15.115 14.1553 15.3452 13.9616 15.3452 13.9616C15.3452 13.9616 15.5927 13.9788 15.3452 14.0756C15.0977 14.1725 14.7878 14.4738 14.7878 14.5706C14.7878 14.6675 14.6737 14.943 14.9471 14.6503C15.2204 14.3576 15.0698 14.5965 15.0095 14.7213C14.9471 14.8461 14.8416 15.2787 15.1063 14.9236C15.3711 14.5706 15.1408 14.5879 15.2828 14.7019C15.4249 14.816 15.3797 14.8074 15.3366 14.8698C15.2936 14.9322 15.2828 14.8956 15.1343 15.1259C14.9837 15.3562 14.7986 15.4961 14.9837 15.5241C15.1688 15.5499 15.0805 15.7716 15.0891 15.8684C15.0977 15.9653 15.186 16.0277 15.2742 15.9481C15.3625 15.8684 15.3452 16.1697 15.3452 16.258C15.3452 16.3462 15.4701 16.3118 15.4701 16.2666C15.4701 16.2214 15.4528 15.9136 15.5497 16.0363C15.6465 16.159 15.7348 16.1245 15.709 16.0191C15.6831 15.9136 15.4787 15.4444 15.6745 15.6209C15.8682 15.7974 15.709 15.3992 15.6917 15.3476C15.6745 15.2938 15.6745 15.0119 15.7972 15.3132C15.922 15.6145 15.922 15.1281 15.8941 15.0657C15.8682 15.0032 15.9199 14.8095 15.9823 15.0226C16.0447 15.2357 16.0167 14.9688 15.9651 14.6783C15.9113 14.3856 15.823 14.0778 15.9823 14.2177C16.1416 14.3576 16.3008 14.4028 16.1846 14.1725C16.0705 13.9422 15.8575 13.359 16.0512 13.5634C16.2449 13.7679 16.2276 13.7679 16.2104 13.5806C16.1932 13.3955 16.1846 13.3159 16.3159 13.4472C16.4493 13.5806 16.4665 13.2793 16.3869 13.2083C16.3073 13.1373 16.1738 12.7843 16.2987 12.8726C16.4235 12.9608 16.3783 12.8015 16.3611 12.7305C16.3439 12.6595 16.4493 12.6681 16.5031 12.7219C16.5569 12.7757 16.5117 12.4658 16.4579 12.4292C16.4041 12.3948 16.2814 11.96 16.4321 12.1021C16.5828 12.2441 16.5655 12.1731 16.6086 12.0569C16.6538 11.9428 16.6968 11.9858 16.6538 12.1365C16.6086 12.2872 16.5031 12.526 16.671 12.4636C16.8389 12.4012 16.6968 12.5605 16.6796 12.6487C16.6624 12.737 16.6258 12.9586 16.7851 12.8424C16.9443 12.7284 16.8303 12.9931 16.8109 13.0555C16.7937 13.1179 16.6602 13.6387 16.9164 13.2492C17.1725 12.8596 17.1014 12.9221 17.0132 13.1523C16.925 13.3826 16.8109 13.6646 16.8453 13.7442C16.8798 13.8238 17.0304 13.6387 17.2177 13.1782C17.4028 12.7176 17.6503 12.5949 17.5706 12.7542C17.491 12.9134 17.2693 13.303 17.1725 13.5677C17.0756 13.8324 16.8798 14.4781 17.0928 14.293C17.3059 14.1079 17.1552 14.3899 17.138 14.4609C17.1208 14.5319 17.0498 14.8138 17.1466 14.6826C17.2435 14.5491 17.2435 14.788 17.2349 14.9387C17.2263 15.0893 17.2887 15.1238 17.2521 15.3454C17.2177 15.5671 17.3662 15.5391 17.4028 15.4681C17.4372 15.3971 17.4286 15.6188 17.4479 15.6812C17.4652 15.7436 17.4824 15.8749 17.5814 15.8039C17.6782 15.7328 17.6782 15.9007 17.6782 15.9803C17.6782 16.06 17.8009 15.6963 17.7751 15.9976C17.7493 16.2989 17.943 16.5012 17.9516 16.3591C17.9602 16.2171 18.1022 16.3333 18.1453 16.5356C18.1905 16.7379 18.339 16.7917 18.339 16.6583C18.339 16.5249 18.1883 16.1181 18.3476 16.2967C18.5068 16.4732 18.4616 16.2623 18.4444 16.1913C18.4272 16.1202 18.1345 15.8555 18.2938 15.9179C18.453 15.9803 18.5154 15.8921 18.453 15.8125C18.3906 15.7328 18.1603 15.5112 18.3196 15.5026C18.4789 15.4939 18.4961 15.3971 18.3734 15.2378C18.2507 15.0786 18.4444 15.1044 18.5413 15.1754C18.6381 15.2464 18.6037 15.0248 18.4961 14.9107C18.3906 14.7966 18.2486 14.5039 18.4337 14.575C18.6187 14.646 18.5671 14.5125 18.5391 14.4523C18.5133 14.3899 18.1065 13.9831 18.4057 14.1337C18.707 14.2844 18.6274 14.222 18.5649 14.0455C18.5025 13.869 18.141 13.4795 18.3799 13.5333C18.6187 13.5871 18.5649 13.4278 18.4853 13.331C18.4057 13.2341 18.2636 13.0297 18.4767 13.0749C18.6898 13.1201 18.3971 12.9156 18.4057 12.8812C18.4143 12.8467 18.2378 12.6509 18.4143 12.6595C18.5908 12.6681 18.5477 12.6143 18.4767 12.4744C18.4057 12.3323 18.3433 12.2183 18.5477 12.3323C18.7522 12.4464 18.6532 12.1903 18.6187 12.1021C18.5843 12.0138 18.3174 11.7835 18.5391 11.8094C18.7608 11.8352 18.6015 11.6867 18.5929 11.6329C18.5843 11.5791 18.849 11.6329 18.7522 11.465C18.6553 11.2971 18.3196 10.9958 18.5219 11.0324C18.7242 11.069 18.5391 10.8107 18.5133 10.7225C18.4875 10.6343 18.3712 10.4212 18.5219 10.4836C18.6726 10.546 18.735 10.8193 18.849 10.8366C18.9631 10.8538 19.1051 10.8 19.0513 10.8796C18.9975 10.9592 19.1051 10.9506 19.2278 10.8172C19.3505 10.6838 19.4495 10.447 19.4667 10.5697C19.4839 10.6945 19.3957 10.8344 19.344 10.9054C19.2902 10.9765 18.9825 11.3208 18.9825 11.4629C18.9825 11.6049 18.9739 11.6566 19.1762 11.4004C19.3785 11.1443 19.6088 11.0389 19.4775 11.3036C19.344 11.5683 19.1051 12.1171 19.3978 11.7642C19.6905 11.4112 19.7788 11.4908 19.5313 11.8438C19.2838 12.1968 19.301 12.384 19.5227 12.1257C19.7444 11.8675 20.0435 11.4715 19.7788 12.0375C19.5141 12.6035 19.2752 12.78 19.5657 12.6121C19.8584 12.4443 19.8391 12.427 19.7594 12.5949C19.6798 12.7628 19.4581 12.9134 19.4581 12.9565C19.4581 12.9995 19.4043 13.2836 19.6712 12.9995C19.9359 12.7176 19.9273 12.9027 19.8391 13.0447C19.7508 13.1868 19.0793 13.9723 19.6626 13.5849C20.2458 13.1954 19.768 13.6022 19.768 13.656C19.768 13.7098 19.4151 14.3016 19.8132 13.8949C20.2114 13.4881 19.9553 13.9917 19.8842 14.0089C19.8132 14.0261 19.2838 14.7687 19.6454 14.5663C20.0069 14.364 20.0952 14.151 20.0263 14.3726C19.9553 14.5943 19.7164 14.7364 19.6733 14.7966C19.6281 14.859 19.3634 15.3368 19.6475 15.141C19.9294 14.9473 20.0887 14.6804 20.0005 14.9107C19.9122 15.141 19.6475 15.4143 19.8498 15.3799C20.0521 15.3433 19.867 15.5026 19.824 15.6016C19.7809 15.6984 19.753 15.8663 19.8778 15.8146C20.0026 15.7608 19.966 15.9481 19.966 16.0277C19.966 16.1073 20.1081 16.1611 20.1425 16.0105C20.1769 15.8598 20.0973 15.8684 20.2759 15.8964C20.4524 15.9222 20.2501 15.7716 20.2673 15.6575C20.2846 15.5434 20.4438 15.6123 20.5062 15.6661C20.5687 15.7199 20.6827 15.8426 20.7537 15.7285C20.8248 15.6145 20.5945 15.2163 20.461 15.0657C20.3276 14.915 20.3362 14.6051 20.4438 14.7299C20.5493 14.8547 20.7172 15.1711 20.7365 15.2507C20.7537 15.3304 20.87 15.2507 20.8162 15.057C20.7623 14.8633 20.6827 14.6503 20.5687 14.5448C20.4546 14.4394 20.347 14.1639 20.489 14.2629C20.6311 14.3597 20.842 14.9085 20.842 14.9085C20.842 14.9085 21.0637 15.2701 21.0185 14.8547C20.9754 14.4394 20.5945 14.1208 20.5493 14.0584C20.5041 13.996 20.3728 13.7851 20.5041 13.7937C20.6375 13.8023 20.9109 14.3769 20.9109 14.3769C20.9109 14.3769 21.0701 14.4308 20.9367 14.067C20.8032 13.7055 20.5299 13.5978 20.4955 13.5376C20.461 13.4752 20.39 13.1136 20.5579 13.3159C20.7258 13.5182 20.9195 13.7765 20.956 13.9702C20.9905 14.1639 21.1067 13.9357 21.0443 13.8109C20.9819 13.6861 20.8506 13.2901 20.6031 13.077C20.3556 12.8639 20.461 12.7671 20.5859 12.9005C20.7085 13.034 21.1605 13.8475 21.1347 13.4407C21.1089 13.034 20.6827 12.7068 20.6052 12.6186C20.5256 12.5304 20.5084 12.3087 20.6504 12.4765C20.7925 12.6444 21.1368 13.1136 21.04 12.7585C20.9431 12.4055 20.5105 12.1494 20.5105 12.1494C20.5105 12.1494 20.3599 11.9105 20.5364 11.9901C20.7128 12.0698 21.4123 13.0684 21.1992 12.4593C20.9862 11.8503 20.9259 12.1494 20.8893 12.0181C20.8549 11.8847 21.0744 11.9299 21.0744 11.9299C21.0744 11.9299 20.9517 11.7534 20.8011 11.6566C20.6504 11.5597 20.687 11.4887 20.7925 11.5339C20.8979 11.5791 21.0314 11.5425 20.8721 11.366C20.7128 11.1895 20.5708 10.871 20.8011 11.1099C21.0314 11.3488 21.2165 11.3488 21.0744 11.1013C20.9324 10.8538 20.7301 10.7828 20.8183 10.6493C20.9065 10.5159 20.6956 10.2964 20.8807 10.3932C21.0658 10.4901 20.9862 10.7548 21.111 10.6751C21.2337 10.5955 21.2251 10.1177 21.3047 10.6407C21.3843 11.1615 21.5178 11.2692 21.5178 10.9765C21.5178 10.6838 21.7029 10.9937 21.7029 11.3122C21.7029 11.6307 21.8363 11.833 21.8707 11.5597C21.9052 11.2864 22.0042 11.1788 21.9934 11.5597C21.9848 11.9406 22.2409 11.9299 22.2323 11.6049C22.2237 11.2778 22.426 11.6587 22.355 12.0375C22.284 12.4184 22.2926 12.9931 22.5142 12.3474C22.7359 11.7018 22.6907 12.0827 22.7273 12.3022C22.7618 12.5239 22.7725 12.8231 22.921 12.5325C23.0717 12.2398 23.0006 12.8144 22.992 12.9737C22.9834 13.133 23.1771 13.176 23.1771 12.9823C23.1771 12.7886 23.3708 13.0533 23.3106 13.3181C23.2481 13.5828 23.3106 13.6194 23.4246 13.6366C23.5387 13.6538 23.6269 14.0778 23.6377 13.8841C23.6463 13.6904 23.7173 13.8045 23.8142 13.9185C23.911 14.0326 24.0186 13.8647 24.0272 14.052C24.0359 14.2371 24.1607 14.0606 24.1327 13.7507C24.1047 13.4407 24.2834 13.7679 24.363 13.8217C24.4426 13.8755 24.6019 13.8647 24.3286 13.3181C24.0552 12.7692 24.4082 13.247 24.4792 13.204C24.5502 13.1588 24.3824 12.9393 24.32 12.8424C24.2575 12.7456 24.2489 12.6035 24.3996 12.5777C24.5502 12.5519 24.462 12.4809 24.2231 12.3216C23.9842 12.1623 24.0811 12.1795 24.2403 12.1709C24.3996 12.1623 24.1951 12.0289 24.0466 11.9234C23.896 11.818 23.6937 11.6307 23.9218 11.5877C24.1521 11.5425 24.0724 11.4284 23.7539 11.3402C23.4354 11.2519 23.1879 11.1895 23.472 11.1099C23.7539 11.0303 23.8077 11.0389 23.6399 10.9872C23.472 10.9334 23.3127 10.9958 23.3299 10.8193C23.3472 10.6429 23.4548 10.617 23.2589 10.546C23.0652 10.475 23.1535 10.546 22.8866 10.5116C22.6219 10.4771 23.0545 10.4492 23.1083 10.3093C23.1621 10.1672 22.9856 10.221 22.9059 10.2124C22.8263 10.2038 22.6046 10.1242 22.7725 10.0532C22.9404 9.98214 22.596 9.83148 22.4712 9.83148C22.3464 9.83148 22.1785 9.76046 22.3916 9.64639C22.6046 9.53233 22.2775 9.47852 22.1527 9.47852C22.0278 9.47852 21.8341 9.41611 22.0278 9.34508C22.2215 9.27406 21.8772 9.20304 21.8062 9.21165C21.7351 9.22026 21.3908 9.18582 21.6921 9.09758C21.9934 9.00934 21.5501 8.92971 21.436 8.94693C21.3219 8.96414 21.2229 8.75323 21.2229 8.75323C21.2229 8.75323 21.0723 8.26683 21.2143 8.41748C21.3564 8.56814 21.8341 9.03732 21.6921 8.75323C21.5501 8.46914 21.4618 8.25822 21.6383 8.41748C21.8148 8.57675 22.0278 9.19658 22.0278 8.83286C22.0278 8.46914 21.7803 8.25822 22.0537 8.50572C22.327 8.75323 22.327 9.24823 22.426 8.9211C22.5229 8.59396 22.4088 8.49711 22.5939 8.75323C22.779 9.00934 22.7079 8.83286 22.7359 8.69942C22.7618 8.56598 22.8156 8.66499 22.85 8.83286C22.8844 9.00073 23.1061 9.25684 23.0631 8.84147C23.0179 8.42609 23.1599 8.69081 23.2223 8.84147C23.2847 8.99212 23.3816 9.28267 23.444 8.9749C23.5064 8.66499 23.6571 9.04593 23.6829 9.19658C23.7087 9.34724 23.9046 9.53233 23.8594 9.18797C23.8142 8.84362 24.0445 9.22241 24.0445 9.37306C24.0445 9.52372 24.2748 9.63778 24.2123 9.27621C24.1499 8.91464 24.3544 9.02871 24.434 9.35585C24.5136 9.68298 24.6643 9.85946 24.6643 9.5065C24.6643 9.15354 24.815 9.42687 24.886 9.64855C24.957 9.87022 25.1873 10.3824 25.1593 9.7992C25.1335 9.21595 25.1765 9.49789 25.282 9.72818C25.3874 9.95846 25.5295 10.277 25.5295 9.89605C25.5295 9.51511 25.6888 9.83364 25.7146 10.0295C25.7404 10.2232 25.8373 10.6127 25.8825 10.2232C25.9277 9.83364 25.9965 10.1522 26.0503 10.2856C26.1041 10.419 26.3516 10.4449 26.3516 10.3286C26.3516 10.2124 26.3172 10.1522 26.4743 10.1866C26.6336 10.221 26.5453 9.91327 26.4915 9.95631C26.4377 9.99936 26.4291 9.77122 26.6056 9.80566C26.7821 9.84009 26.597 9.55815 26.526 9.55815C26.4549 9.55815 26.526 9.45269 26.3323 9.39889C26.1386 9.34508 26.2268 9.24823 26.244 9.19658C26.2612 9.14278 26.2699 9.09973 26.1192 9.06314C25.9685 9.02871 26.0654 8.94047 26.0848 8.87805C26.102 8.81564 26.0589 8.76399 25.8911 8.81564C25.7232 8.86945 25.3961 8.79842 25.6522 8.70157C25.9083 8.60472 25.8738 8.4885 25.6866 8.4799C25.5015 8.47129 25.3853 8.48851 25.5101 8.36583C25.6328 8.24315 25.3853 8.17213 25.1916 8.20657C24.9979 8.241 24.5287 8.37444 24.7676 8.241C25.0065 8.10756 25.0323 7.9483 24.8472 7.97628C24.6622 8.00426 24.1133 8.10972 24.335 8.01071C24.5567 7.91387 24.6708 7.67497 24.4491 7.7008C24.2274 7.72662 23.8034 7.87728 24.0251 7.7094C24.2468 7.54153 24.264 7.4081 24.0423 7.4167C23.8206 7.42531 23.5215 7.62116 23.6011 7.52216C23.6807 7.42531 23.5473 7.31986 23.3988 7.35429C23.2482 7.38873 23.0803 7.28327 23.3902 7.20364C23.7001 7.124 23.2847 7.1154 22.9748 7.17781C22.6649 7.24022 22.355 7.25744 22.7015 7.09818C23.0458 6.93891 22.6477 6.91309 22.454 6.99272C22.2603 7.07235 21.9245 7.2144 22.1355 7.02715C22.3485 6.84206 21.9418 6.95613 21.8255 7.00994C21.7093 7.06374 21.4188 7.03576 21.5953 6.93891C21.7717 6.84206 21.4898 6.77965 21.4188 6.88511C21.3477 6.99057 21.154 6.8313 21.2961 6.76028C21.4381 6.68926 21.1454 6.75167 20.9948 6.84852C20.8441 6.94537 20.5966 6.98196 20.659 6.88296C20.7215 6.78611 20.4201 6.90017 20.2889 7.00563C20.1554 7.11109 19.9165 6.82054 20.05 6.78395C20.1834 6.74737 20.1038 6.6333 19.9617 6.58165C19.8197 6.52784 19.9962 6.4396 20.192 6.63545C20.3857 6.82915 20.2803 6.45036 20.2372 6.41377C20.192 6.37934 19.9639 6.18349 20.2824 6.23729C20.6009 6.2911 20.672 6.33414 20.5643 6.16627C20.4589 5.9984 20.4309 5.9532 20.6892 6.0522C20.9453 6.14905 21.1584 6.06942 21.0335 5.94675C20.9087 5.82192 20.9883 5.77026 21.1476 5.8499C21.3069 5.92953 21.3693 5.93814 21.2896 5.78748C21.21 5.63683 21.2638 5.5658 21.4575 5.79609C21.6512 6.02638 21.9181 5.90155 21.7395 5.74229C21.563 5.58302 21.634 5.52061 21.8105 5.65405C21.987 5.78748 22.1204 5.71646 21.9783 5.5658C21.8363 5.41515 21.9073 5.2731 22.1376 5.47756C22.3679 5.67987 22.482 5.5658 22.3227 5.43452C22.1634 5.30108 22.3399 5.20423 22.525 5.49693C22.7101 5.78963 22.8177 5.63898 22.7553 5.50554C22.6929 5.37211 22.7467 5.26665 22.8887 5.51415C23.0308 5.76166 23.19 5.55935 23.1104 5.46035C23.0308 5.3635 23.1814 5.24728 23.3235 5.50339C23.4655 5.7595 23.6506 5.67987 23.5365 5.49478C23.4225 5.30969 23.599 5.2645 23.713 5.49478C23.8271 5.72507 24.066 5.74229 24.0057 5.57441C23.9433 5.40654 24.1284 5.46896 24.165 5.53998C24.1994 5.611 24.4921 5.67342 24.3673 5.48617C24.2446 5.30108 24.4814 5.38071 24.561 5.54859C24.6406 5.71646 24.8171 5.75089 24.7741 5.611C24.7289 5.46896 24.9075 5.65405 24.9764 5.76166C25.0474 5.86711 25.2239 5.8499 25.1981 5.76166C25.1722 5.67341 25.4369 5.8585 25.3659 5.53137C25.2949 5.20423 25.2325 5.28386 25.2777 5.20423C25.3229 5.1246 25.1981 5.1246 25.155 5.10738C25.112 5.09017 25.0044 5.01053 25.0926 4.96534C25.1808 4.92229 25.0044 4.78025 24.8537 4.8319C24.703 4.88571 24.2704 4.8771 24.6406 4.72644C25.0108 4.57579 24.7289 4.54135 24.6578 4.54135C24.5868 4.54135 24.9054 4.31107 24.4017 4.39931C23.8981 4.48755 24.1004 4.3907 24.2511 4.32828C24.4017 4.26587 24.3135 4.08078 23.7302 4.3907C23.147 4.70062 22.8909 4.66403 23.3687 4.41652C23.8465 4.16902 24.165 3.93013 23.4655 4.16902C22.7661 4.40792 23.1556 4.1518 23.2632 4.098C23.3687 4.04419 23.713 3.72782 23.0243 4.04419C22.3356 4.36272 22.3614 4.3455 22.6541 4.14104C22.9468 3.93873 22.9189 3.62882 22.3614 4.15826C21.804 4.68986 21.6275 4.82975 21.7524 4.62744C21.875 4.42513 22.5831 3.75149 21.9654 4.07002C21.3477 4.38855 21.337 5.18486 21.2315 4.72429C21.1261 4.26372 21.4963 4.35196 21.6555 4.19485C21.8148 4.03558 21.5587 4.00115 21.3736 4.18624C21.1885 4.37133 21.055 4.38855 21.055 4.79531C21.055 5.20208 20.8162 4.93736 20.87 4.85773C20.9238 4.7781 20.8872 4.31752 21.1885 4.06141C21.4898 3.8053 20.8527 4.13243 20.8355 4.18409C20.8183 4.23574 20.5622 4.53705 20.5794 4.35196C20.5966 4.16687 20.5084 4.31752 20.3663 4.37779C20.2243 4.4402 19.8972 4.47463 19.994 4.395C20.0909 4.31537 20.2673 4.1475 20.4632 4.16472C20.6569 4.18193 20.5773 4.01406 20.3922 4.03989C20.2071 4.06571 19.9682 3.93443 20.2415 3.90645C20.5148 3.88063 20.8075 3.73858 20.6569 3.67617C20.5062 3.61375 20.5514 3.57932 20.7451 3.54273C20.9388 3.50829 21.2143 3.34903 20.9668 3.32105C20.7193 3.29522 20.6483 3.14457 20.9324 3.14457C21.2165 3.14457 21.5156 3.01974 21.3736 2.95087C21.2315 2.87985 21.3198 2.86263 21.4704 2.87124C21.6211 2.87985 21.5953 2.75717 21.4166 2.70337C21.2401 2.64956 21.4704 2.56132 21.7093 2.56132C21.9482 2.56132 22.1247 2.44725 22.0106 2.41067C21.8966 2.37623 21.9396 2.27723 22.1247 2.32243C22.3098 2.36762 22.6907 2.26001 22.5229 2.22558C22.355 2.19114 22.4174 2.0491 22.6025 2.0491C22.7876 2.0491 22.9382 2.04049 22.8586 1.95225C22.779 1.86401 22.893 1.88122 23.0803 1.86401C23.2675 1.84679 23.7432 1.81881 23.5667 1.76716C23.3902 1.71335 23.1943 1.58207 23.3278 1.55409C23.4612 1.52611 23.203 1.40343 23.0889 1.369C22.9748 1.33456 22.8414 1.26354 22.85 1.20973C22.8586 1.15593 22.7359 1.15593 22.6477 1.22695C22.5594 1.29797 22.4088 1.28937 22.4174 1.20973C22.426 1.1301 22.4174 1.13871 22.2947 1.20973C22.1699 1.28076 22.0472 1.31519 22.073 1.22695C22.0989 1.13871 21.9224 1.22695 21.8514 1.29797C21.7803 1.369 21.6577 1.53687 21.6577 1.43141C21.6577 1.32595 21.4446 1.20112 21.436 1.34317C21.4274 1.48522 21.2767 1.82957 21.2767 1.71335C21.2767 1.59713 21.2229 1.33241 21.1002 1.50028C20.9776 1.66815 21.0744 1.99529 20.9582 1.96085C20.8441 1.92427 20.941 1.76716 20.9496 1.64233C20.9582 1.5175 20.7731 1.33241 20.6935 1.68752C20.6138 2.04049 20.8269 2.45586 20.7021 2.35901C20.5773 2.26216 20.5514 2.16531 20.56 1.93503C20.5687 1.70474 20.4094 1.8102 20.3922 1.99744C20.375 2.18253 20.4352 2.73135 20.3663 2.44941C20.2953 2.16747 20.2867 1.61865 20.1447 1.98022C20.0026 2.3418 20.2501 3.02405 20.1447 2.85617C20.0392 2.6883 19.994 2.60867 19.994 2.41497C19.994 2.22127 19.8434 2.2471 19.8003 2.41497C19.7573 2.58284 19.8003 3.38777 19.7659 3.24572C19.7314 3.10368 19.7659 2.9272 19.6862 2.76793C19.6066 2.60867 19.5442 3.04987 19.5442 2.97024C19.5442 2.89061 19.6862 3.49968 19.6066 3.4222C19.527 3.34257 19.4215 3.57286 19.3505 3.1747C19.2795 2.77654 19.2536 3.19192 19.174 3.27155C19.0944 3.35118 19.0061 3.16609 18.9265 3.56425C18.8469 3.96241 18.7759 4.09369 18.6876 3.96241C18.5994 3.82897 18.4939 3.99684 18.4939 4.1475C18.4939 4.29815 18.3347 4.41222 18.3174 4.30676C18.3002 4.2013 18.1151 4.25296 18.1044 4.12167C18.0958 3.98824 17.9903 4.05065 17.9451 4.28094C17.8999 4.51122 17.7686 4.40361 17.8483 4.03343C17.9279 3.66325 17.9537 3.38777 17.8483 3.50399C17.7428 3.61806 17.7342 3.41575 17.7428 3.28231C17.7514 3.14887 17.7514 2.93796 17.7084 2.98961C17.6632 3.04342 17.5663 3.11444 17.6115 2.82174C17.6567 2.52904 17.5577 2.43219 17.4781 2.75072C17.3984 3.06924 17.4867 3.53842 17.3812 3.63527C17.2758 3.73212 17.1682 3.74934 17.2392 3.55564C17.3102 3.36194 17.4523 2.981 17.4329 2.54841C17.4157 2.11581 17.2908 1.99099 17.2736 2.27508C17.2564 2.55702 17.3705 3.0262 17.1854 3.16824C17.0003 3.31029 16.9723 3.24788 17.0175 3.08861C17.0605 2.92935 17.2198 2.72704 17.1596 2.32888C17.0971 1.93072 16.9207 1.72842 16.912 2.01036C16.9034 2.29229 17.0261 2.68184 16.8862 2.73565C16.7442 2.78946 16.7442 2.69906 16.8066 2.54195C16.869 2.38269 16.912 1.89629 16.8862 1.666C16.8604 1.43572 16.6925 1.36469 16.6732 1.55193C16.6559 1.73702 16.6387 1.34963 16.6559 1.19897C16.6732 1.04832 16.5139 0.721182 16.4967 0.968686C16.4795 1.21619 16.3546 1.16239 16.3546 0.960077C16.3546 0.75777 16.3632 0.252001 16.2836 0.518875C16.204 0.783596 16.1157 0.828793 16.0985 0.695356C16.0813 0.561919 16.0813 0.226174 16.0103 0.305806C15.9392 0.385438 15.8252 0.376829 15.7972 0.26061C15.7714 0.146542 15.752 0.155151 15.7262 0.277827C15.7004 0.400503 15.5669 0.252001 15.5497 0.24124L15.5325 0.232631Z" fill="#00A650"/>
<path d="M5.19547 18.2036C5.50324 19.2969 5.94444 19.6886 6.4373 20.2999C6.18549 21.0897 4.07848 22.7728 3.1229 24.2685C2.71828 23.2441 2.32227 23.2204 1.88538 22.2132C2.9787 20.1987 4.27218 19.68 5.19547 18.2036Z" fill="#496E6E"/>
<path d="M30.8024 18.2036C30.4946 19.2969 30.0534 19.6886 29.5605 20.2999C29.8124 21.0897 31.9194 22.7728 32.8749 24.2685C33.2796 23.2441 33.6756 23.2204 34.1125 22.2132C33.0191 20.1987 31.7257 19.68 30.8024 18.2036Z" fill="#496E6E"/>
<path d="M3.65015 20.7971C3.88043 20.5496 4.242 20.3279 4.58636 20.7089C4.81664 21.1242 4.63155 21.5396 4.42709 21.8323C4.45292 21.6192 4.49812 21.2318 4.34746 20.9929C4.08274 20.7196 3.9945 20.7992 3.65015 20.7992V20.7971Z" fill="white"/>
<path d="M32.3477 20.7971C32.1174 20.5496 31.7558 20.3279 31.4114 20.7089C31.1812 21.1242 31.3662 21.5396 31.5707 21.8323C31.5449 21.6192 31.4997 21.2318 31.6503 20.9929C31.9151 20.7196 32.0033 20.7992 32.3477 20.7992V20.7971Z" fill="white"/>
<path d="M5.93792 15.083L17.9989 36.4803V38.0621L5.56128 15.3111C5.69687 15.2638 5.82385 15.1906 5.93792 15.083Z" fill="#573F2F"/>
<path d="M30.0599 15.083L17.9989 36.4802V38.0621L30.4365 15.3089C30.3009 15.2616 30.1739 15.1884 30.0599 15.0808V15.083Z" fill="#573F2F"/>
<path d="M5.38047 14.5922C5.09207 14.7643 4.93927 15.0463 5.04257 15.2184C5.14588 15.3928 5.46656 15.3928 5.75495 15.2228C6.04335 15.0506 6.19616 14.7686 6.09285 14.5965C5.98954 14.4221 5.66887 14.42 5.38047 14.5922Z" fill="#573F2F"/>
<path d="M30.6173 14.5922C30.9057 14.7643 31.0585 15.0463 30.9552 15.2184C30.8519 15.3928 30.5312 15.3928 30.2428 15.2228C29.9544 15.0506 29.8016 14.7686 29.9049 14.5965C30.0082 14.4221 30.3267 14.42 30.6173 14.5922Z" fill="#573F2F"/>
<path d="M17.8224 16.2366C17.7686 23.6445 17.5663 30.1958 17.5039 37.6037C17.1854 38.7788 16.6021 39.5407 15.5325 39.601C15.356 39.601 15.2677 39.6806 15.285 39.8398V40.2638C15.2763 40.4661 15.3388 40.5565 15.498 40.5286C16.3546 40.4403 17.1423 40.8019 17.9989 40.8299C18.8555 40.804 19.6432 40.4403 20.4998 40.5286C20.659 40.5544 20.7214 40.4661 20.7128 40.2638V39.8398C20.73 39.6806 20.6418 39.601 20.4653 39.601C19.3957 39.5385 18.8124 38.7788 18.4939 37.6037C18.4315 30.1958 18.255 23.6445 18.2012 16.2366H17.8203H17.8224Z" fill="#573F2F"/>
<path d="M15.5325 0.232631C15.5325 0.232631 15.4442 0.269218 15.4701 0.409112C15.4959 0.551158 15.257 0.443547 15.257 0.400503C15.257 0.357459 15.186 0.454308 15.2118 0.480135C15.2376 0.505961 15.3173 0.542549 15.3538 0.602811C15.3883 0.665225 15.3452 0.779292 15.3087 0.744857C15.2742 0.710421 15.158 0.701812 15.1752 0.736248C15.1924 0.770683 15.2807 0.781444 15.3517 0.90412C15.4227 1.0268 15.3431 1.03756 15.3431 1.03756C15.3431 1.03756 15.2376 1.00312 15.2376 1.05477C15.2376 1.10643 15.2548 1.16023 15.3173 1.19682C15.3797 1.23126 15.511 1.33887 15.582 1.33887C15.653 1.33887 15.6272 1.43572 15.6272 1.43572C15.6272 1.43572 15.4937 1.3733 15.4679 1.46154C15.4421 1.54978 15.5303 1.62081 15.5303 1.62081C15.5303 1.62081 15.752 1.78007 15.8402 1.79729C15.9285 1.8145 15.9823 1.93072 15.9285 1.93933C15.8747 1.94794 15.7154 1.95655 15.6638 1.94794C15.61 1.93933 15.5497 2.04479 15.6014 2.08999C15.6552 2.13518 15.823 2.19545 15.9737 2.23203C16.1243 2.26647 16.0964 2.32888 16.0619 2.3461C16.0275 2.36332 15.7972 2.3913 15.7434 2.3461C15.6896 2.3009 15.5583 2.39991 15.681 2.47093C15.8058 2.54195 16.0339 2.50536 16.0167 2.64741C15.9995 2.78946 15.8833 2.73565 15.8316 2.74426C15.7778 2.75287 15.7068 2.8325 15.8058 2.8863C15.9027 2.94011 16.0878 3.04557 16.1868 3.04557C16.2858 3.04557 16.3116 3.19622 16.2578 3.19622C16.204 3.19622 16.0017 3.179 15.9931 3.16179C15.9844 3.14457 15.808 3.16179 15.9844 3.29522C16.1609 3.4179 16.0555 3.37486 16.2233 3.43727C16.3912 3.49968 16.2233 3.59653 16.1975 3.58792C16.1717 3.57932 16.0469 3.67617 16.1631 3.7106C16.2771 3.74719 16.3654 3.79884 16.3309 3.83543C16.2965 3.86986 16.1889 3.96887 16.3137 3.99469C16.4386 4.02052 16.6237 4.0485 16.5526 4.14535C16.4816 4.2422 16.5785 4.19054 16.7033 4.23359C16.8281 4.27878 16.7119 4.37563 16.6688 4.36702C16.6237 4.35842 16.3417 4.21637 16.3159 4.296C16.2901 4.37563 16.3331 4.40146 16.3331 4.40146C16.3331 4.40146 16.5354 4.43589 16.6258 4.50692C16.714 4.57794 16.7313 4.64035 16.6258 4.64035C16.5203 4.64035 16.4751 4.5349 16.4127 4.59516C16.3503 4.65757 16.4838 4.75442 16.4386 4.8771C16.3934 5.00193 16.3137 4.92229 16.3137 4.75442C16.3137 4.58655 16.1717 4.45311 16.1717 4.45311C16.1717 4.45311 16.1179 4.58655 16.1179 4.37348C16.1179 4.16041 15.9931 4.26802 15.9931 4.33905C15.9931 4.41007 16.0727 4.53274 16.0103 4.56072C15.9479 4.58655 15.78 4.31322 15.78 4.21637C15.78 4.11952 15.6379 4.1023 15.6379 4.21637C15.6379 4.33044 15.709 4.5887 15.7972 4.7372C15.8854 4.88571 16.0447 5.08156 15.9651 5.12675C15.8854 5.17195 15.8144 5.18056 15.8144 5.10093C15.8144 5.0213 15.5131 4.31322 15.3646 4.13674C15.214 3.96026 15.2053 3.96887 15.2053 4.08293C15.2053 4.197 15.4787 4.51553 15.4184 4.70277C15.356 4.88786 15.2936 4.70277 15.285 4.70277C15.2764 4.70277 15.1429 4.17333 14.8782 3.82682C14.6135 3.48247 14.6135 3.71275 14.6845 3.80099C14.7555 3.88923 15.0289 4.23359 14.9944 4.45526C14.96 4.67694 14.889 4.57794 14.8696 4.47248C14.8524 4.36702 14.6049 3.69554 14.2864 3.42866C13.9678 3.16394 14.0216 3.42005 14.0927 3.46525C14.1637 3.51045 14.4994 3.8548 14.508 4.16256C14.5166 4.47248 14.4112 4.26802 14.3832 4.20776C14.3574 4.14535 14.2325 3.62451 13.8624 3.31459C13.49 3.00468 13.6859 3.39423 13.6859 3.34042C13.6859 3.28662 14.0754 3.70199 14.0754 3.96887C14.0754 4.23574 13.9614 4.13674 13.9528 4.08293C13.9442 4.02913 13.7849 3.5621 13.4922 3.36625C13.1995 3.17255 13.2189 3.11874 13.1112 3.15318C13.0058 3.18761 12.9434 3.16179 12.9089 3.09937C12.8745 3.03696 12.5732 2.9315 12.6873 3.15318C12.8013 3.37486 12.5108 3.10798 12.5022 3.09937C12.4936 3.09076 12.1298 2.92289 12.2547 3.09937C12.3773 3.27585 12.8379 3.36409 12.8379 3.58577C12.8379 3.80745 12.9175 3.83328 12.7583 3.72782C12.599 3.62236 12.5108 3.28662 12.1384 3.1704C11.7661 3.05633 12.1384 3.3727 12.1298 3.32966C12.1212 3.28446 12.4398 3.51475 12.2719 3.55995C12.104 3.60299 12.0782 3.44588 12.0244 3.36625C11.9706 3.28662 11.7597 3.10153 11.7059 3.18116C11.652 3.26079 11.7683 3.29522 11.6886 3.29522C11.609 3.29522 11.3873 3.21559 11.3959 3.36625C11.4045 3.5169 11.3249 3.42866 11.2711 3.42866C11.2173 3.42866 11.1291 3.45449 11.1377 3.50829C11.1463 3.5621 10.9698 3.50829 10.9698 3.57071C10.9698 3.63312 11.058 3.65895 11.1118 3.66756C11.1656 3.67617 11.2087 3.7106 11.1118 3.80099C11.015 3.88923 11.0494 4.0485 11.1656 4.0033C11.2797 3.9581 11.3787 3.88923 11.4842 3.88923C11.5896 3.88923 11.6176 3.86341 11.5638 3.94304C11.51 4.02267 11.4497 4.11952 11.5638 4.11952C11.6779 4.11952 11.9964 3.84619 12.0674 3.95165C12.1384 4.05711 12.1384 4.08508 12.0502 4.15396C11.962 4.22498 12.0416 4.30461 12.1836 4.28739C12.3257 4.27017 12.5452 4.12813 12.67 4.19915C12.7927 4.27017 12.7045 4.28739 12.6442 4.32398C12.5818 4.35842 12.5022 4.45742 12.6098 4.45742C12.7174 4.45742 12.8035 4.42298 12.9907 4.43159C13.1758 4.4402 13.0962 4.32613 13.193 4.41437C13.2899 4.50261 13.3523 4.50261 13.2275 4.55642C13.1026 4.61022 13.0596 4.74151 13.2102 4.7329C13.3609 4.72429 13.5202 4.61022 13.7139 4.63605C13.9076 4.66188 13.9162 4.67909 13.8365 4.75873C13.7569 4.83836 13.6342 4.82975 13.6342 4.91799C13.6342 5.00623 13.7677 5.00623 13.8193 4.98901C13.8731 4.97179 14.0216 4.90077 14.0927 4.90077C14.1637 4.90077 14.2347 4.90938 14.1723 4.9804C14.1099 5.05143 14.0668 5.01484 14.0216 5.08586C13.9764 5.15688 13.9764 5.18271 14.1099 5.19132C14.2433 5.19993 14.4542 5.1741 14.4908 5.19132C14.5252 5.20854 14.7039 5.20854 14.6156 5.24513C14.5274 5.28171 14.3229 5.38717 14.4392 5.413C14.5554 5.43882 14.6781 5.4668 14.8201 5.44743C14.9621 5.43022 15.0934 5.51846 15.0138 5.54428C14.9342 5.57011 14.8373 5.64974 15.0224 5.64974C15.2075 5.64974 15.3237 5.64974 15.3237 5.72076C15.3237 5.79179 15.2096 5.74659 15.1558 5.86281C15.102 5.97688 15.5174 6.33199 15.7219 6.65052C15.9242 6.96905 15.907 6.73015 15.8359 6.85283C15.7649 6.9755 15.6229 6.93246 15.5798 6.827C15.5346 6.72154 15.4378 6.5343 15.1731 6.27819C14.9083 6.02207 14.9256 5.99625 14.8911 5.99625C14.8567 5.99625 14.7857 6.06727 14.8997 6.19855C15.0138 6.33199 15.2979 6.52569 15.3495 6.75598C15.4033 6.98626 15.1817 6.87004 15.1731 6.81839C15.1645 6.76459 15.0224 6.42023 14.6867 6.11892C14.3509 5.81761 14.0496 5.809 14.1744 5.95105C14.2993 6.0931 14.7405 6.32338 14.7943 6.61393C14.8481 6.90663 14.6264 6.73876 14.6178 6.68495C14.6092 6.63115 14.4241 6.26958 14.1056 6.0479C13.787 5.82622 13.5847 5.8542 13.673 6.0027C13.7612 6.15336 13.6192 6.09955 13.5933 6.07373C13.5675 6.0479 13.3372 5.88864 13.2748 5.92307C13.2124 5.95751 13.1694 5.96827 13.221 6.06512C13.2748 6.16197 13.1328 6.09955 13.0079 6.05651C12.8831 6.01346 12.7346 5.95966 12.7346 6.07373C12.7346 6.18779 12.5323 6.03929 12.4785 6.02853C12.4247 6.01992 12.0179 5.92307 12.0179 6.0027C12.0179 6.08233 12.1858 6.18779 12.0179 6.1964C11.8501 6.20501 11.665 6.23084 11.7532 6.32984C11.8414 6.42669 12.0803 6.2954 12.3365 6.63976C12.5926 6.98411 12.2396 6.77319 12.231 6.77319C12.2224 6.77319 12.0976 6.5881 11.9297 6.51708C11.7618 6.44606 11.5853 6.35782 11.4088 6.3406C11.2324 6.32338 11.0817 6.42023 11.241 6.49125C11.4002 6.56228 11.736 6.57949 11.9125 6.79256C12.0889 7.00563 11.6908 6.85498 11.6564 6.78395C11.6219 6.71293 11.1786 6.6333 11.1786 6.6333C11.1786 6.6333 10.5071 6.62469 10.9763 6.79256C11.4454 6.96044 11.6843 7.12831 11.2496 7.00563C10.817 6.88296 10.1347 6.90017 10.4447 7.03146C10.7546 7.1649 10.3198 7.08526 10.251 7.09387C10.1799 7.10248 9.97763 7.1649 10.1175 7.34999C10.2596 7.53508 9.92382 7.38442 10.1003 7.45544C10.2768 7.52647 9.87002 7.6061 10.1627 7.62332C10.4554 7.64053 9.73013 7.79119 9.90661 7.80841C10.0831 7.82562 9.6053 8.13554 9.96041 8.05591C10.3134 7.97628 9.99485 8.08174 10.1283 8.15276C10.2617 8.22378 10.2703 7.97628 10.322 7.96767C10.3758 7.95906 10.5243 7.68573 10.5243 7.88804C10.5243 8.09035 10.4361 8.21517 10.7008 7.93323C10.9655 7.6513 10.9031 7.84499 10.8859 7.94184C10.8686 8.03869 10.8859 8.14415 10.9827 8.08389C11.0796 8.02148 11.0279 8.30557 11.1334 8.16352C11.2388 8.02148 11.2216 7.83639 11.3464 7.75675C11.4713 7.67712 11.5939 7.58888 11.5143 7.79119C11.4347 7.9935 11.4691 8.18935 11.665 7.90526C11.8587 7.62332 11.9383 7.5609 11.8952 7.72877C11.8501 7.89665 11.878 8.0473 12.0179 7.84284C12.16 7.64053 12.2826 7.58673 12.203 7.76321C12.1234 7.93969 12.2568 7.85145 12.3365 7.81702C12.4161 7.78258 12.4613 7.77397 12.4333 7.88804C12.4075 8.00211 12.655 7.6061 12.726 7.52647C12.797 7.44684 13.0359 7.21655 12.8315 7.63193C12.6292 8.0473 12.9821 7.72017 12.9821 7.72017C12.9821 7.72017 13.5568 7.16274 13.3437 7.55229C13.1306 7.94184 13.2382 7.97628 13.4061 7.8536C13.574 7.73093 13.787 7.32416 13.6622 7.6513C13.5395 7.97843 13.5826 8.04945 13.7849 7.83639C13.9872 7.62332 14.4219 7.10248 14.2627 7.57166C14.1034 8.04085 14.4392 7.66851 14.493 7.6061C14.5468 7.54368 14.8201 7.40379 14.607 7.67712C14.394 7.95045 14.7835 7.78258 14.8631 7.72017C14.9428 7.65775 15.2247 7.40164 15.0224 7.73738C14.8201 8.07313 14.9514 7.95906 15.1731 7.84284C15.3947 7.72878 15.4206 7.84284 15.3151 7.98489C15.2097 8.12693 15.1128 7.9483 15.2096 8.19796C15.3065 8.44546 15.0762 8.31202 14.9794 8.33139C14.8825 8.34861 15.0676 8.44546 14.8459 8.49066C14.6242 8.53585 13.97 8.55307 14.3423 8.72955C14.7146 8.90603 14.2455 8.76399 14.1917 8.81779C14.1378 8.8716 13.8903 8.90603 14.0324 8.96845C14.1744 9.03086 13.8731 9.07391 13.8107 9.0653C13.7483 9.05669 13.0596 9.19013 13.4298 9.23317C13.8021 9.27837 14.5532 9.08251 14.6049 9.27837C14.6587 9.47206 14.2433 9.34939 14.1271 9.34939C14.0109 9.34939 12.4742 9.44624 13.1285 9.51726C13.7827 9.58828 13.8538 9.50865 13.9248 9.57107C13.9958 9.63348 13.589 9.65931 13.4642 9.65931C13.3394 9.65931 12.457 9.78413 12.8185 9.81857C13.1801 9.85301 13.1457 9.88959 12.9068 9.94125C12.6679 9.99505 12.2611 10.1349 12.7217 10.1543C13.1823 10.1737 13.7655 10.1887 13.2081 10.2878C12.6507 10.3846 12.6335 10.2426 12.3149 10.3502C11.9964 10.4556 11.8285 10.5266 12.7927 10.5353C13.7569 10.5439 12.9262 10.6063 12.952 10.6407C12.9778 10.6751 12.2353 10.6493 11.8737 10.7914C11.5122 10.9334 11.6886 10.9958 11.581 11.0841C11.4756 11.1723 11.2281 11.3768 11.7833 11.2864C12.3408 11.1981 11.5703 11.4801 11.5014 11.4801C11.4325 11.4801 10.6792 12.0805 11.6348 11.6652C12.5904 11.2498 11.9878 11.5855 11.9275 11.7104C11.8651 11.833 11.1054 12.0375 11.1054 12.0375C11.1054 12.0375 11.0344 12.214 11.256 12.1602C11.4777 12.1064 11.6456 11.8503 11.7597 11.9665C11.8737 12.0805 11.538 12.143 11.2733 12.2678C11.0085 12.3905 10.619 12.7628 11.3873 12.4443C12.1557 12.1257 11.5122 12.5239 11.4497 12.5583C11.3873 12.5928 10.9892 12.681 10.8493 12.9393C10.7072 13.1954 10.7696 13.3998 10.9547 13.275C11.1398 13.1523 11.157 13.1782 11.0688 13.3374C10.9806 13.4967 10.9354 13.7786 10.9978 13.841C11.0602 13.9035 11.1484 13.9917 11.1829 13.6818C11.2173 13.3719 11.3249 13.4257 11.3249 13.5677C11.3249 13.7098 11.4218 13.6215 11.4497 13.4171C11.4756 13.2126 11.609 13.2492 11.609 13.3546C11.609 13.4601 11.68 13.5483 11.7338 13.1868C11.7876 12.8252 11.8479 12.8058 11.8673 12.9651C11.8845 13.1244 11.9899 13.4257 12.0351 12.9393C12.0803 12.4529 12.1492 12.4787 12.1772 12.6659C12.203 12.851 12.2913 12.9673 12.3537 12.5325C12.4161 12.0999 12.3989 11.7534 12.4871 12.1709C12.5753 12.5863 12.6636 12.0913 12.6636 11.9148C12.6636 11.7383 12.7884 11.5253 12.7884 11.7728C12.7884 12.0203 12.9219 12.2678 13.0617 11.8072C13.2038 11.3466 13.2124 11.1895 13.2124 11.5059C13.2124 11.8223 13.3631 11.6114 13.3803 11.4973C13.3975 11.3832 13.5654 10.4901 13.645 11.0991C13.7246 11.7082 13.8215 11.196 13.8129 11.0539C13.8043 10.9119 13.9721 10.277 13.9807 10.9119C13.9893 11.5489 14.1938 10.8237 14.183 10.7892C14.1744 10.7526 14.2627 10.0811 14.3509 10.63C14.4392 11.1788 14.5274 10.5955 14.5188 10.5331C14.5102 10.4707 14.7319 9.74539 14.6867 10.3738C14.6415 11.0023 14.8287 10.5245 14.8287 10.4449C14.8287 10.3652 14.9708 9.81642 14.9794 10.2426C14.988 10.6665 15.13 10.0575 15.13 10.0833C15.13 10.1091 15.1838 10.0747 15.2183 9.86161C15.2527 9.64855 15.3323 9.80781 15.3323 9.90681C15.3323 10.0058 15.1903 10.2684 15.4206 10.1457C15.6509 10.023 15.5088 10.1715 15.5174 10.2684C15.526 10.3652 15.9328 10.0209 16.1545 9.96707C16.3761 9.91327 16.5074 10.0123 16.2083 10.0897C15.907 10.1694 15.4033 10.4965 15.3323 10.6106C15.2613 10.7246 15.2096 10.9205 15.3495 10.8581C15.4916 10.7957 15.4378 10.9119 15.3754 10.9549C15.313 11.0001 15.102 11.3875 15.4206 11.168C15.7391 10.9463 15.5002 10.9829 15.95 10.8237C16.402 10.6644 16.0555 10.9119 15.9156 10.9743C15.7735 11.0367 15.2527 11.2476 15.0396 11.5037C14.8266 11.7599 15.0568 11.734 15.0848 11.7168C15.1106 11.6996 15.3323 11.4241 15.6422 11.3014C15.9522 11.1766 15.9608 11.168 15.9156 11.3101C15.8704 11.4521 15.6336 11.4069 15.4744 11.5317C15.3151 11.6544 15.0418 11.8137 14.9083 12.0612C14.7749 12.3087 14.7663 12.2742 14.9342 12.2828C15.102 12.2915 15.3947 11.734 15.6595 11.6996C15.9242 11.6652 15.7305 11.8589 15.6939 11.8589C15.6573 11.8589 15.526 11.8675 15.3582 12.0009C15.1903 12.1343 14.988 12.2398 14.9083 12.4249C14.8287 12.61 14.8201 12.4787 15.0504 12.4787C15.2807 12.4787 15.201 12.1774 15.483 12.1343C15.7649 12.0892 15.6681 12.3022 15.5884 12.3194C15.5088 12.3367 15.0396 12.4873 14.8201 12.8403C14.5984 13.1932 14.9621 13.0081 14.9621 13.0081C14.9621 13.0081 15.1214 12.7434 15.4227 12.6186C15.724 12.4959 15.5196 12.7154 15.5454 12.7241C15.5712 12.7327 15.0246 12.8919 14.7491 13.2987C14.4757 13.7055 14.8545 13.5376 14.8825 13.4666C14.9083 13.3955 15.1128 13.0856 15.3603 13.0254C15.6078 12.9629 15.4658 13.176 15.4055 13.2384C15.3431 13.3008 14.9019 13.3719 14.7082 13.7679C14.5145 14.166 14.8502 13.8905 14.8502 13.8905C14.8502 13.8905 14.9751 13.5462 15.2914 13.501C15.61 13.4558 15.5045 13.501 15.3173 13.6603C15.1322 13.8195 14.8136 13.996 14.805 14.1897C14.7964 14.3834 14.7598 14.5082 14.9385 14.3318C15.115 14.1553 15.3452 13.9616 15.3452 13.9616C15.3452 13.9616 15.5927 13.9788 15.3452 14.0756C15.0977 14.1725 14.7878 14.4738 14.7878 14.5706C14.7878 14.6675 14.6737 14.943 14.9471 14.6503C15.2204 14.3576 15.0698 14.5965 15.0095 14.7213C14.9471 14.8461 14.8416 15.2787 15.1063 14.9236C15.3711 14.5706 15.1408 14.5879 15.2828 14.7019C15.4249 14.816 15.3797 14.8074 15.3366 14.8698C15.2936 14.9322 15.2828 14.8956 15.1343 15.1259C14.9837 15.3562 14.7986 15.4961 14.9837 15.5241C15.1688 15.5499 15.0805 15.7716 15.0891 15.8684C15.0977 15.9653 15.186 16.0277 15.2742 15.9481C15.3625 15.8684 15.3452 16.1697 15.3452 16.258C15.3452 16.3462 15.4701 16.3118 15.4701 16.2666C15.4701 16.2214 15.4528 15.9136 15.5497 16.0363C15.6465 16.159 15.7348 16.1245 15.709 16.0191C15.6831 15.9136 15.4787 15.4444 15.6745 15.6209C15.8682 15.7974 15.709 15.3992 15.6917 15.3476C15.6745 15.2938 15.6745 15.0119 15.7972 15.3132C15.922 15.6145 15.922 15.1281 15.8941 15.0657C15.8682 15.0032 15.9199 14.8095 15.9823 15.0226C16.0447 15.2357 16.0167 14.9688 15.9651 14.6783C15.9113 14.3856 15.823 14.0778 15.9823 14.2177C16.1416 14.3576 16.3008 14.4028 16.1846 14.1725C16.0705 13.9422 15.8575 13.359 16.0512 13.5634C16.2449 13.7679 16.2276 13.7679 16.2104 13.5806C16.1932 13.3955 16.1846 13.3159 16.3159 13.4472C16.4493 13.5806 16.4665 13.2793 16.3869 13.2083C16.3073 13.1373 16.1738 12.7843 16.2987 12.8726C16.4235 12.9608 16.3783 12.8015 16.3611 12.7305C16.3439 12.6595 16.4493 12.6681 16.5031 12.7219C16.5569 12.7757 16.5117 12.4658 16.4579 12.4292C16.4041 12.3948 16.2814 11.96 16.4321 12.1021C16.5828 12.2441 16.5655 12.1731 16.6086 12.0569C16.6538 11.9428 16.6968 11.9858 16.6538 12.1365C16.6086 12.2872 16.5031 12.526 16.671 12.4636C16.8389 12.4012 16.6968 12.5605 16.6796 12.6487C16.6624 12.737 16.6258 12.9586 16.7851 12.8424C16.9443 12.7284 16.8303 12.9931 16.8109 13.0555C16.7937 13.1179 16.6602 13.6387 16.9164 13.2492C17.1725 12.8596 17.1014 12.9221 17.0132 13.1523C16.925 13.3826 16.8109 13.6646 16.8453 13.7442C16.8798 13.8238 17.0304 13.6387 17.2177 13.1782C17.4028 12.7176 17.6503 12.5949 17.5706 12.7542C17.491 12.9134 17.2693 13.303 17.1725 13.5677C17.0756 13.8324 16.8798 14.4781 17.0928 14.293C17.3059 14.1079 17.1552 14.3899 17.138 14.4609C17.1208 14.5319 17.0498 14.8138 17.1466 14.6826C17.2435 14.5491 17.2435 14.788 17.2349 14.9387C17.2263 15.0893 17.2887 15.1238 17.2521 15.3454C17.2177 15.5671 17.3662 15.5391 17.4028 15.4681C17.4372 15.3971 17.4286 15.6188 17.4479 15.6812C17.4652 15.7436 17.4824 15.8749 17.5814 15.8039C17.6782 15.7328 17.6782 15.9007 17.6782 15.9803C17.6782 16.06 17.8009 15.6963 17.7751 15.9976C17.7493 16.2989 17.943 16.5012 17.9516 16.3591C17.9602 16.2171 18.1022 16.3333 18.1453 16.5356C18.1905 16.7379 18.339 16.7917 18.339 16.6583C18.339 16.5249 18.1883 16.1181 18.3476 16.2967C18.5068 16.4732 18.4616 16.2623 18.4444 16.1913C18.4272 16.1202 18.1345 15.8555 18.2938 15.9179C18.453 15.9803 18.5154 15.8921 18.453 15.8125C18.3906 15.7328 18.1603 15.5112 18.3196 15.5026C18.4789 15.4939 18.4961 15.3971 18.3734 15.2378C18.2507 15.0786 18.4444 15.1044 18.5413 15.1754C18.6381 15.2464 18.6037 15.0248 18.4961 14.9107C18.3906 14.7966 18.2486 14.5039 18.4337 14.575C18.6187 14.646 18.5671 14.5125 18.5391 14.4523C18.5133 14.3899 18.1065 13.9831 18.4057 14.1337C18.707 14.2844 18.6274 14.222 18.5649 14.0455C18.5025 13.869 18.141 13.4795 18.3799 13.5333C18.6187 13.5871 18.5649 13.4278 18.4853 13.331C18.4057 13.2341 18.2636 13.0297 18.4767 13.0749C18.6898 13.1201 18.3971 12.9156 18.4057 12.8812C18.4143 12.8467 18.2378 12.6509 18.4143 12.6595C18.5908 12.6681 18.5477 12.6143 18.4767 12.4744C18.4057 12.3323 18.3433 12.2183 18.5477 12.3323C18.7522 12.4464 18.6532 12.1903 18.6187 12.1021C18.5843 12.0138 18.3174 11.7835 18.5391 11.8094C18.7608 11.8352 18.6015 11.6867 18.5929 11.6329C18.5843 11.5791 18.849 11.6329 18.7522 11.465C18.6553 11.2971 18.3196 10.9958 18.5219 11.0324C18.7242 11.069 18.5391 10.8107 18.5133 10.7225C18.4875 10.6343 18.3712 10.4212 18.5219 10.4836C18.6726 10.546 18.735 10.8193 18.849 10.8366C18.9631 10.8538 19.1051 10.8 19.0513 10.8796C18.9975 10.9592 19.1051 10.9506 19.2278 10.8172C19.3505 10.6838 19.4495 10.447 19.4667 10.5697C19.4839 10.6945 19.3957 10.8344 19.344 10.9054C19.2902 10.9765 18.9825 11.3208 18.9825 11.4629C18.9825 11.6049 18.9739 11.6566 19.1762 11.4004C19.3785 11.1443 19.6088 11.0389 19.4775 11.3036C19.344 11.5683 19.1051 12.1171 19.3978 11.7642C19.6905 11.4112 19.7788 11.4908 19.5313 11.8438C19.2838 12.1968 19.301 12.384 19.5227 12.1257C19.7444 11.8675 20.0435 11.4715 19.7788 12.0375C19.5141 12.6035 19.2752 12.78 19.5657 12.6121C19.8584 12.4443 19.8391 12.427 19.7594 12.5949C19.6798 12.7628 19.4581 12.9134 19.4581 12.9565C19.4581 12.9995 19.4043 13.2836 19.6712 12.9995C19.9359 12.7176 19.9273 12.9027 19.8391 13.0447C19.7508 13.1868 19.0793 13.9723 19.6626 13.5849C20.2458 13.1954 19.768 13.6022 19.768 13.656C19.768 13.7098 19.4151 14.3016 19.8132 13.8949C20.2114 13.4881 19.9553 13.9917 19.8842 14.0089C19.8132 14.0261 19.2838 14.7687 19.6454 14.5663C20.0069 14.364 20.0952 14.151 20.0263 14.3726C19.9553 14.5943 19.7164 14.7364 19.6733 14.7966C19.6281 14.859 19.3634 15.3368 19.6475 15.141C19.9294 14.9473 20.0887 14.6804 20.0005 14.9107C19.9122 15.141 19.6475 15.4143 19.8498 15.3799C20.0521 15.3433 19.867 15.5026 19.824 15.6016C19.7809 15.6984 19.753 15.8663 19.8778 15.8146C20.0026 15.7608 19.966 15.9481 19.966 16.0277C19.966 16.1073 20.1081 16.1611 20.1425 16.0105C20.1769 15.8598 20.0973 15.8684 20.2759 15.8964C20.4524 15.9222 20.2501 15.7716 20.2673 15.6575C20.2846 15.5434 20.4438 15.6123 20.5062 15.6661C20.5687 15.7199 20.6827 15.8426 20.7537 15.7285C20.8248 15.6145 20.5945 15.2163 20.461 15.0657C20.3276 14.915 20.3362 14.6051 20.4438 14.7299C20.5493 14.8547 20.7172 15.1711 20.7365 15.2507C20.7537 15.3304 20.87 15.2507 20.8162 15.057C20.7623 14.8633 20.6827 14.6503 20.5687 14.5448C20.4546 14.4394 20.347 14.1639 20.489 14.2629C20.6311 14.3597 20.842 14.9085 20.842 14.9085C20.842 14.9085 21.0637 15.2701 21.0185 14.8547C20.9754 14.4394 20.5945 14.1208 20.5493 14.0584C20.5041 13.996 20.3728 13.7851 20.5041 13.7937C20.6375 13.8023 20.9109 14.3769 20.9109 14.3769C20.9109 14.3769 21.0701 14.4308 20.9367 14.067C20.8032 13.7055 20.5299 13.5978 20.4955 13.5376C20.461 13.4752 20.39 13.1136 20.5579 13.3159C20.7258 13.5182 20.9195 13.7765 20.956 13.9702C20.9905 14.1639 21.1067 13.9357 21.0443 13.8109C20.9819 13.6861 20.8506 13.2901 20.6031 13.077C20.3556 12.8639 20.461 12.7671 20.5859 12.9005C20.7085 13.034 21.1605 13.8475 21.1347 13.4407C21.1089 13.034 20.6827 12.7068 20.6052 12.6186C20.5256 12.5304 20.5084 12.3087 20.6504 12.4765C20.7925 12.6444 21.1368 13.1136 21.04 12.7585C20.9431 12.4055 20.5105 12.1494 20.5105 12.1494C20.5105 12.1494 20.3599 11.9105 20.5364 11.9901C20.7128 12.0698 21.4123 13.0684 21.1992 12.4593C20.9862 11.8503 20.9259 12.1494 20.8893 12.0181C20.8549 11.8847 21.0744 11.9299 21.0744 11.9299C21.0744 11.9299 20.9517 11.7534 20.8011 11.6566C20.6504 11.5597 20.687 11.4887 20.7925 11.5339C20.8979 11.5791 21.0314 11.5425 20.8721 11.366C20.7128 11.1895 20.5708 10.871 20.8011 11.1099C21.0314 11.3488 21.2165 11.3488 21.0744 11.1013C20.9324 10.8538 20.7301 10.7828 20.8183 10.6493C20.9065 10.5159 20.6956 10.2964 20.8807 10.3932C21.0658 10.4901 20.9862 10.7548 21.111 10.6751C21.2337 10.5955 21.2251 10.1177 21.3047 10.6407C21.3843 11.1615 21.5178 11.2692 21.5178 10.9765C21.5178 10.6838 21.7029 10.9937 21.7029 11.3122C21.7029 11.6307 21.8363 11.833 21.8707 11.5597C21.9052 11.2864 22.0042 11.1788 21.9934 11.5597C21.9848 11.9406 22.2409 11.9299 22.2323 11.6049C22.2237 11.2778 22.426 11.6587 22.355 12.0375C22.284 12.4184 22.2926 12.9931 22.5142 12.3474C22.7359 11.7018 22.6907 12.0827 22.7273 12.3022C22.7618 12.5239 22.7725 12.8231 22.921 12.5325C23.0717 12.2398 23.0006 12.8144 22.992 12.9737C22.9834 13.133 23.1771 13.176 23.1771 12.9823C23.1771 12.7886 23.3708 13.0533 23.3106 13.3181C23.2481 13.5828 23.3106 13.6194 23.4246 13.6366C23.5387 13.6538 23.6269 14.0778 23.6377 13.8841C23.6463 13.6904 23.7173 13.8045 23.8142 13.9185C23.911 14.0326 24.0186 13.8647 24.0272 14.052C24.0359 14.2371 24.1607 14.0606 24.1327 13.7507C24.1047 13.4407 24.2834 13.7679 24.363 13.8217C24.4426 13.8755 24.6019 13.8647 24.3286 13.3181C24.0552 12.7692 24.4082 13.247 24.4792 13.204C24.5502 13.1588 24.3824 12.9393 24.32 12.8424C24.2575 12.7456 24.2489 12.6035 24.3996 12.5777C24.5502 12.5519 24.462 12.4809 24.2231 12.3216C23.9842 12.1623 24.0811 12.1795 24.2403 12.1709C24.3996 12.1623 24.1951 12.0289 24.0466 11.9234C23.896 11.818 23.6937 11.6307 23.9218 11.5877C24.1521 11.5425 24.0724 11.4284 23.7539 11.3402C23.4354 11.2519 23.1879 11.1895 23.472 11.1099C23.7539 11.0303 23.8077 11.0389 23.6399 10.9872C23.472 10.9334 23.3127 10.9958 23.3299 10.8193C23.3472 10.6429 23.4548 10.617 23.2589 10.546C23.0652 10.475 23.1535 10.546 22.8866 10.5116C22.6219 10.4771 23.0545 10.4492 23.1083 10.3093C23.1621 10.1672 22.9856 10.221 22.9059 10.2124C22.8263 10.2038 22.6046 10.1242 22.7725 10.0532C22.9404 9.98214 22.596 9.83148 22.4712 9.83148C22.3464 9.83148 22.1785 9.76046 22.3916 9.64639C22.6046 9.53233 22.2775 9.47852 22.1527 9.47852C22.0278 9.47852 21.8341 9.41611 22.0278 9.34508C22.2215 9.27406 21.8772 9.20304 21.8062 9.21165C21.7351 9.22026 21.3908 9.18582 21.6921 9.09758C21.9934 9.00934 21.5501 8.92971 21.436 8.94693C21.3219 8.96414 21.2229 8.75323 21.2229 8.75323C21.2229 8.75323 21.0723 8.26683 21.2143 8.41748C21.3564 8.56814 21.8341 9.03732 21.6921 8.75323C21.5501 8.46914 21.4618 8.25822 21.6383 8.41748C21.8148 8.57675 22.0278 9.19658 22.0278 8.83286C22.0278 8.46914 21.7803 8.25822 22.0537 8.50572C22.327 8.75323 22.327 9.24823 22.426 8.9211C22.5229 8.59396 22.4088 8.49711 22.5939 8.75323C22.779 9.00934 22.7079 8.83286 22.7359 8.69942C22.7618 8.56598 22.8156 8.66499 22.85 8.83286C22.8844 9.00073 23.1061 9.25684 23.0631 8.84147C23.0179 8.42609 23.1599 8.69081 23.2223 8.84147C23.2847 8.99212 23.3816 9.28267 23.444 8.9749C23.5064 8.66499 23.6571 9.04593 23.6829 9.19658C23.7087 9.34724 23.9046 9.53233 23.8594 9.18797C23.8142 8.84362 24.0445 9.22241 24.0445 9.37306C24.0445 9.52372 24.2748 9.63778 24.2123 9.27621C24.1499 8.91464 24.3544 9.02871 24.434 9.35585C24.5136 9.68298 24.6643 9.85946 24.6643 9.5065C24.6643 9.15354 24.815 9.42687 24.886 9.64855C24.957 9.87022 25.1873 10.3824 25.1593 9.7992C25.1335 9.21595 25.1765 9.49789 25.282 9.72818C25.3874 9.95846 25.5295 10.277 25.5295 9.89605C25.5295 9.51511 25.6888 9.83364 25.7146 10.0295C25.7404 10.2232 25.8373 10.6127 25.8825 10.2232C25.9277 9.83364 25.9965 10.1522 26.0503 10.2856C26.1041 10.419 26.3516 10.4449 26.3516 10.3286C26.3516 10.2124 26.3172 10.1522 26.4743 10.1866C26.6336 10.221 26.5453 9.91327 26.4915 9.95631C26.4377 9.99936 26.4291 9.77122 26.6056 9.80566C26.7821 9.84009 26.597 9.55815 26.526 9.55815C26.4549 9.55815 26.526 9.45269 26.3323 9.39889C26.1386 9.34508 26.2268 9.24823 26.244 9.19658C26.2612 9.14278 26.2699 9.09973 26.1192 9.06314C25.9685 9.02871 26.0654 8.94047 26.0848 8.87805C26.102 8.81564 26.0589 8.76399 25.8911 8.81564C25.7232 8.86945 25.3961 8.79842 25.6522 8.70157C25.9083 8.60472 25.8738 8.4885 25.6866 8.4799C25.5015 8.47129 25.3853 8.48851 25.5101 8.36583C25.6328 8.24315 25.3853 8.17213 25.1916 8.20657C24.9979 8.241 24.5287 8.37444 24.7676 8.241C25.0065 8.10756 25.0323 7.9483 24.8472 7.97628C24.6622 8.00426 24.1133 8.10972 24.335 8.01071C24.5567 7.91387 24.6708 7.67497 24.4491 7.7008C24.2274 7.72662 23.8034 7.87728 24.0251 7.7094C24.2468 7.54153 24.264 7.4081 24.0423 7.4167C23.8206 7.42531 23.5215 7.62116 23.6011 7.52216C23.6807 7.42531 23.5473 7.31986 23.3988 7.35429C23.2482 7.38873 23.0803 7.28327 23.3902 7.20364C23.7001 7.124 23.2847 7.1154 22.9748 7.17781C22.6649 7.24022 22.355 7.25744 22.7015 7.09818C23.0458 6.93891 22.6477 6.91309 22.454 6.99272C22.2603 7.07235 21.9245 7.2144 22.1355 7.02715C22.3485 6.84206 21.9418 6.95613 21.8255 7.00994C21.7093 7.06374 21.4188 7.03576 21.5953 6.93891C21.7717 6.84206 21.4898 6.77965 21.4188 6.88511C21.3477 6.99057 21.154 6.8313 21.2961 6.76028C21.4381 6.68926 21.1454 6.75167 20.9948 6.84852C20.8441 6.94537 20.5966 6.98196 20.659 6.88296C20.7215 6.78611 20.4201 6.90017 20.2889 7.00563C20.1554 7.11109 19.9165 6.82054 20.05 6.78395C20.1834 6.74737 20.1038 6.6333 19.9617 6.58165C19.8197 6.52784 19.9962 6.4396 20.192 6.63545C20.3857 6.82915 20.2803 6.45036 20.2372 6.41377C20.192 6.37934 19.9639 6.18349 20.2824 6.23729C20.6009 6.2911 20.672 6.33414 20.5643 6.16627C20.4589 5.9984 20.4309 5.9532 20.6892 6.0522C20.9453 6.14905 21.1584 6.06942 21.0335 5.94675C20.9087 5.82192 20.9883 5.77026 21.1476 5.8499C21.3069 5.92953 21.3693 5.93814 21.2896 5.78748C21.21 5.63683 21.2638 5.5658 21.4575 5.79609C21.6512 6.02638 21.9181 5.90155 21.7395 5.74229C21.563 5.58302 21.634 5.52061 21.8105 5.65405C21.987 5.78748 22.1204 5.71646 21.9783 5.5658C21.8363 5.41515 21.9073 5.2731 22.1376 5.47756C22.3679 5.67987 22.482 5.5658 22.3227 5.43452C22.1634 5.30108 22.3399 5.20423 22.525 5.49693C22.7101 5.78963 22.8177 5.63898 22.7553 5.50554C22.6929 5.37211 22.7467 5.26665 22.8887 5.51415C23.0308 5.76166 23.19 5.55935 23.1104 5.46035C23.0308 5.3635 23.1814 5.24728 23.3235 5.50339C23.4655 5.7595 23.6506 5.67987 23.5365 5.49478C23.4225 5.30969 23.599 5.2645 23.713 5.49478C23.8271 5.72507 24.066 5.74229 24.0057 5.57441C23.9433 5.40654 24.1284 5.46896 24.165 5.53998C24.1994 5.611 24.4921 5.67342 24.3673 5.48617C24.2446 5.30108 24.4814 5.38071 24.561 5.54859C24.6406 5.71646 24.8171 5.75089 24.7741 5.611C24.7289 5.46896 24.9075 5.65405 24.9764 5.76166C25.0474 5.86711 25.2239 5.8499 25.1981 5.76166C25.1722 5.67341 25.4369 5.8585 25.3659 5.53137C25.2949 5.20423 25.2325 5.28386 25.2777 5.20423C25.3229 5.1246 25.1981 5.1246 25.155 5.10738C25.112 5.09017 25.0044 5.01053 25.0926 4.96534C25.1808 4.92229 25.0044 4.78025 24.8537 4.8319C24.703 4.88571 24.2704 4.8771 24.6406 4.72644C25.0108 4.57579 24.7289 4.54135 24.6578 4.54135C24.5868 4.54135 24.9054 4.31107 24.4017 4.39931C23.8981 4.48755 24.1004 4.3907 24.2511 4.32828C24.4017 4.26587 24.3135 4.08078 23.7302 4.3907C23.147 4.70062 22.8909 4.66403 23.3687 4.41652C23.8465 4.16902 24.165 3.93013 23.4655 4.16902C22.7661 4.40792 23.1556 4.1518 23.2632 4.098C23.3687 4.04419 23.713 3.72782 23.0243 4.04419C22.3356 4.36272 22.3614 4.3455 22.6541 4.14104C22.9468 3.93873 22.9189 3.62882 22.3614 4.15826C21.804 4.68986 21.6275 4.82975 21.7524 4.62744C21.875 4.42513 22.5831 3.75149 21.9654 4.07002C21.3477 4.38855 21.337 5.18486 21.2315 4.72429C21.1261 4.26372 21.4963 4.35196 21.6555 4.19485C21.8148 4.03558 21.5587 4.00115 21.3736 4.18624C21.1885 4.37133 21.055 4.38855 21.055 4.79531C21.055 5.20208 20.8162 4.93736 20.87 4.85773C20.9238 4.7781 20.8872 4.31752 21.1885 4.06141C21.4898 3.8053 20.8527 4.13243 20.8355 4.18409C20.8183 4.23574 20.5622 4.53705 20.5794 4.35196C20.5966 4.16687 20.5084 4.31752 20.3663 4.37779C20.2243 4.4402 19.8972 4.47463 19.994 4.395C20.0909 4.31537 20.2673 4.1475 20.4632 4.16472C20.6569 4.18193 20.5773 4.01406 20.3922 4.03989C20.2071 4.06571 19.9682 3.93443 20.2415 3.90645C20.5148 3.88063 20.8075 3.73858 20.6569 3.67617C20.5062 3.61375 20.5514 3.57932 20.7451 3.54273C20.9388 3.50829 21.2143 3.34903 20.9668 3.32105C20.7193 3.29522 20.6483 3.14457 20.9324 3.14457C21.2165 3.14457 21.5156 3.01974 21.3736 2.95087C21.2315 2.87985 21.3198 2.86263 21.4704 2.87124C21.6211 2.87985 21.5953 2.75717 21.4166 2.70337C21.2401 2.64956 21.4704 2.56132 21.7093 2.56132C21.9482 2.56132 22.1247 2.44725 22.0106 2.41067C21.8966 2.37623 21.9396 2.27723 22.1247 2.32243C22.3098 2.36762 22.6907 2.26001 22.5229 2.22558C22.355 2.19114 22.4174 2.0491 22.6025 2.0491C22.7876 2.0491 22.9382 2.04049 22.8586 1.95225C22.779 1.86401 22.893 1.88122 23.0803 1.86401C23.2675 1.84679 23.7432 1.81881 23.5667 1.76716C23.3902 1.71335 23.1943 1.58207 23.3278 1.55409C23.4612 1.52611 23.203 1.40343 23.0889 1.369C22.9748 1.33456 22.8414 1.26354 22.85 1.20973C22.8586 1.15593 22.7359 1.15593 22.6477 1.22695C22.5594 1.29797 22.4088 1.28937 22.4174 1.20973C22.426 1.1301 22.4174 1.13871 22.2947 1.20973C22.1699 1.28076 22.0472 1.31519 22.073 1.22695C22.0989 1.13871 21.9224 1.22695 21.8514 1.29797C21.7803 1.369 21.6577 1.53687 21.6577 1.43141C21.6577 1.32595 21.4446 1.20112 21.436 1.34317C21.4274 1.48522 21.2767 1.82957 21.2767 1.71335C21.2767 1.59713 21.2229 1.33241 21.1002 1.50028C20.9776 1.66815 21.0744 1.99529 20.9582 1.96085C20.8441 1.92427 20.941 1.76716 20.9496 1.64233C20.9582 1.5175 20.7731 1.33241 20.6935 1.68752C20.6138 2.04049 20.8269 2.45586 20.7021 2.35901C20.5773 2.26216 20.5514 2.16531 20.56 1.93503C20.5687 1.70474 20.4094 1.8102 20.3922 1.99744C20.375 2.18253 20.4352 2.73135 20.3663 2.44941C20.2953 2.16747 20.2867 1.61865 20.1447 1.98022C20.0026 2.3418 20.2501 3.02405 20.1447 2.85617C20.0392 2.6883 19.994 2.60867 19.994 2.41497C19.994 2.22127 19.8434 2.2471 19.8003 2.41497C19.7573 2.58284 19.8003 3.38777 19.7659 3.24572C19.7314 3.10368 19.7659 2.9272 19.6862 2.76793C19.6066 2.60867 19.5442 3.04987 19.5442 2.97024C19.5442 2.89061 19.6862 3.49968 19.6066 3.4222C19.527 3.34257 19.4215 3.57286 19.3505 3.1747C19.2795 2.77654 19.2536 3.19192 19.174 3.27155C19.0944 3.35118 19.0061 3.16609 18.9265 3.56425C18.8469 3.96241 18.7759 4.09369 18.6876 3.96241C18.5994 3.82897 18.4939 3.99684 18.4939 4.1475C18.4939 4.29815 18.3347 4.41222 18.3174 4.30676C18.3002 4.2013 18.1151 4.25296 18.1044 4.12167C18.0958 3.98824 17.9903 4.05065 17.9451 4.28094C17.8999 4.51122 17.7686 4.40361 17.8483 4.03343C17.9279 3.66325 17.9537 3.38777 17.8483 3.50399C17.7428 3.61806 17.7342 3.41575 17.7428 3.28231C17.7514 3.14887 17.7514 2.93796 17.7084 2.98961C17.6632 3.04342 17.5663 3.11444 17.6115 2.82174C17.6567 2.52904 17.5577 2.43219 17.4781 2.75072C17.3984 3.06924 17.4867 3.53842 17.3812 3.63527C17.2758 3.73212 17.1682 3.74934 17.2392 3.55564C17.3102 3.36194 17.4523 2.981 17.4329 2.54841C17.4157 2.11581 17.2908 1.99099 17.2736 2.27508C17.2564 2.55702 17.3705 3.0262 17.1854 3.16824C17.0003 3.31029 16.9723 3.24788 17.0175 3.08861C17.0605 2.92935 17.2198 2.72704 17.1596 2.32888C17.0971 1.93072 16.9207 1.72842 16.912 2.01036C16.9034 2.29229 17.0261 2.68184 16.8862 2.73565C16.7442 2.78946 16.7442 2.69906 16.8066 2.54195C16.869 2.38269 16.912 1.89629 16.8862 1.666C16.8604 1.43572 16.6925 1.36469 16.6732 1.55193C16.6559 1.73702 16.6387 1.34963 16.6559 1.19897C16.6732 1.04832 16.5139 0.721182 16.4967 0.968686C16.4795 1.21619 16.3546 1.16239 16.3546 0.960077C16.3546 0.75777 16.3632 0.252001 16.2836 0.518875C16.204 0.783596 16.1157 0.828793 16.0985 0.695356C16.0813 0.561919 16.0813 0.226174 16.0103 0.305806C15.9392 0.385438 15.8252 0.376829 15.7972 0.26061C15.7714 0.146542 15.752 0.155151 15.7262 0.277827C15.7004 0.400503 15.5669 0.252001 15.5497 0.24124L15.5325 0.232631Z" fill="#007E3A"/>
<path d="M5.62587 15.4294C6.21773 17.5343 7.36486 19.1958 8.30968 20.3709C7.82328 21.8904 4.79082 24.4472 2.95283 27.3204C2.17588 25.349 0.839362 24.1287 0 22.1938C2.21032 18.5243 3.84815 18.1176 5.62587 15.4294Z" fill="#D21034"/>
<path d="M30.372 15.4294C29.7802 17.5343 28.6331 19.1958 27.6882 20.3709C28.1746 21.8904 31.2071 24.4472 33.0451 27.3204C33.822 25.349 35.1585 24.1287 35.9979 22.1938C33.7876 18.5243 32.1498 18.1176 30.372 15.4294Z" fill="#D21034"/>
<path d="M5.19547 18.2036C5.50324 19.2969 5.94444 19.6886 6.4373 20.2999C6.18549 21.0897 4.07848 22.7728 3.1229 24.2685C2.71828 23.2441 2.32227 23.2204 1.88538 22.2132C2.9787 20.1987 4.27218 19.68 5.19547 18.2036Z" fill="#007E3A"/>
<path d="M30.8024 18.2036C30.4946 19.2969 30.0534 19.6886 29.5605 20.2999C29.8124 21.0897 31.9194 22.7728 32.8749 24.2685C33.2796 23.2441 33.6756 23.2204 34.1125 22.2132C33.0191 20.1987 31.7257 19.68 30.8024 18.2036Z" fill="#007E3A"/>
<path d="M3.65015 20.7971C3.88043 20.5496 4.242 20.3279 4.58636 20.7089C4.81664 21.1242 4.63155 21.5396 4.42709 21.8323C4.45292 21.6192 4.49812 21.2318 4.34746 20.9929C4.08274 20.7196 3.9945 20.7992 3.65015 20.7992V20.7971Z" fill="white"/>
<path d="M32.3477 20.7971C32.1174 20.5496 31.7558 20.3279 31.4114 20.7089C31.1812 21.1242 31.3662 21.5396 31.5707 21.8323C31.5449 21.6192 31.4997 21.2318 31.6503 20.9929C31.9151 20.7196 32.0033 20.7992 32.3477 20.7992V20.7971Z" fill="white"/>
<path d="M20.4224 17.9496C17.8419 16.5356 14.0303 17.8355 12.6593 20.2223C11.2884 22.6091 11.015 26.0397 13.4277 28.3727C15.8403 30.7057 18.8642 30.7251 21.2251 29.4252C23.5861 28.1252 24.5309 25.7384 24.3544 23.9435C24.1155 25.9235 23.1083 27.6216 21.1541 28.4437C19.1999 29.2659 16.1674 29.1518 14.5059 27.0211C12.8444 24.8905 12.5668 22.5532 13.9851 20.3557C15.4034 18.1562 17.8526 17.0134 20.4202 17.9517L20.4224 17.9496Z" fill="#FEC00F"/>
<path d="M20.4223 17.9497C17.5706 16.9576 15.1214 18.4684 13.9097 20.4786C12.7002 22.4866 12.853 25.4115 14.7276 27.3075C16.6022 29.2036 19.499 29.1176 21.2273 28.4375C22.9555 27.7574 24.1758 25.9323 24.3566 23.9436C23.528 25.5729 22.7747 26.974 21.1304 27.4453C19.4861 27.9166 17.0584 27.6842 15.7284 25.9969C14.3983 24.3095 14.2713 22.4866 15.0719 20.6099C15.8704 18.7353 18.2787 17.5021 20.4223 17.9497Z" fill="#FEC00F"/>
<path d="M15.7218 26.0397C14.4154 24.2921 14.2734 22.4843 15.0719 20.6075C15.8703 18.733 18.2657 17.4997 20.4029 17.9452C17.7836 16.8799 15.1321 18.4015 13.9333 20.3579C12.7884 22.2238 12.5043 24.7828 14.6995 27.331C14.8609 27.5183 15.5303 25.8891 15.724 26.0397H15.7218Z" fill="url(#paint0_linear_199_67)"/>
<path d="M13.4191 28.3642C15.8317 30.6714 18.8728 30.7166 21.2251 29.4253C23.5775 28.134 24.5309 25.7385 24.3544 23.9436C24.1155 25.9236 23.0889 27.6562 21.1821 28.4159C19.2752 29.1756 16.1653 29.0745 14.5081 27.0191C14.4091 26.8964 13.5611 28.2782 13.4212 28.3621L13.4191 28.3642Z" fill="url(#paint1_linear_199_67)"/>
<path d="M17.6697 27.3483L19.3419 22.9019L19.8563 24.7097L17.6697 27.3483Z" fill="#FEC00F"/>
<path d="M23.1879 25.9472L19.3419 22.9019L21.2208 22.9427L23.1879 25.9472Z" fill="#FEC00F"/>
<path d="M23.3967 20.1858L19.3419 22.9019L19.979 21.1155L23.3967 20.1858Z" fill="#FEC00F"/>
<path d="M17.9903 18.0767L19.3419 22.9041L17.8461 21.7268L17.9924 18.0788L17.9903 18.0767Z" fill="#FEC00F"/>
<path d="M14.5769 22.6824L19.3419 22.9019L17.7686 23.9436L14.5769 22.6824Z" fill="#FEC00F"/>
<path d="M17.6697 27.3483L19.3419 22.9019L17.7687 23.9435L17.6697 27.3483Z" fill="url(#paint2_linear_199_67)"/>
<path d="M23.1879 25.9472L19.3419 22.9019L19.8563 24.7097L23.1879 25.9472Z" fill="url(#paint3_linear_199_67)"/>
<path d="M23.3967 20.1858L19.3419 22.9019L21.2208 22.9428L23.3967 20.1858Z" fill="url(#paint4_linear_199_67)"/>
<path d="M17.9904 18.0767L19.3419 22.9041L19.979 21.1177L17.9925 18.0788L17.9904 18.0767Z" fill="url(#paint5_linear_199_67)"/>
<path d="M14.5769 22.6823L19.3419 22.9019L17.8461 21.7246L14.5769 22.6823Z" fill="url(#paint6_linear_199_67)"/>
<path d="M25.4434 33.8889L24.6557 35.9141L23.3536 36.2649C24.7031 36.6179 26.0912 37.1495 27.3331 37.6961C27.0318 37.0332 26.7326 36.3015 26.4421 35.6386C27.0705 35.4449 27.6968 35.2491 28.3338 35.0554C27.488 34.6206 26.4829 34.1859 25.4434 33.8867V33.8889Z" fill="#C7C4E2"/>
<path d="M17.9107 34.767C20.1641 34.8014 22.4153 34.9542 24.5244 35.6343L25.6285 32.8085C23.6119 32.1908 21.2961 31.6463 17.9107 31.6635C14.5253 31.6484 12.2095 32.1929 10.1929 32.8085L11.297 35.6343C13.4061 34.9542 15.6552 34.8014 17.9107 34.767Z" fill="#C7C4E2"/>
<path d="M25.4434 33.889L24.6557 35.9143L23.3536 36.2651C24.703 36.618 26.0912 37.1496 27.333 37.6963C27.0317 37.0334 26.7326 36.3017 26.442 35.6388C27.0705 35.4451 27.6968 35.2492 28.3338 35.0555C27.488 34.6208 26.4829 34.186 25.4434 33.8869M17.9107 34.9673C16.204 35.0039 14.3767 35.0641 12.6248 35.4903L12.9434 36.3598C11.2754 36.7493 9.6548 37.3907 8.10736 38.0944C8.42158 37.3519 8.76163 36.5104 9.08661 35.7765C8.49691 35.5678 7.75009 35.3396 6.97314 35.1373C7.67261 34.7198 8.7853 34.1624 10.3005 33.7104L9.91737 32.6859C12.5603 31.81 15.214 31.457 17.9085 31.457C20.6031 31.457 23.2568 31.81 25.8997 32.6859L25.5166 33.7104C27.0317 34.1602 28.1444 34.7198 28.8439 35.1373C28.0669 35.3396 27.3201 35.5678 26.7304 35.7765C27.0554 36.5104 27.3955 37.3519 27.7097 38.0944C26.1622 37.3907 24.5416 36.7493 22.8737 36.3598L23.1922 35.4903C21.4381 35.0641 19.6109 35.0039 17.9064 34.9673M10.3736 33.8869L11.1613 35.9121L12.4634 36.2629C11.114 36.6159 9.72582 37.1475 8.48399 37.6941C8.7853 37.0313 9.08446 36.2995 9.37501 35.6366C8.74656 35.4429 8.12027 35.2471 7.48322 35.0534C8.32904 34.6186 9.33412 34.1839 10.3736 33.8847M17.9064 34.7628C20.1597 34.7973 22.4109 34.9501 24.5201 35.6302L25.6242 32.8043C23.6076 32.1866 21.2918 31.6421 17.9064 31.6593C14.5209 31.6443 12.2052 32.1888 10.1885 32.8043L11.2926 35.6302C13.4018 34.9522 15.6509 34.7973 17.9064 34.7628Z" fill="black"/>
<path d="M10.378 33.8889L11.1657 35.9141L12.4678 36.2649C11.1183 36.6179 9.73015 37.1495 8.48833 37.6961C8.78963 37.0332 9.08879 36.3015 9.37934 35.6386C8.7509 35.4449 8.1246 35.2491 7.48755 35.0554C8.33337 34.6206 9.33845 34.1859 10.378 33.8867V33.8889Z" fill="#C7C4E2"/>
<path d="M15.3001 32.6966C15.4271 33.0452 15.5454 33.3702 15.6638 33.6909C15.6961 33.7791 15.7305 33.8695 15.7714 33.9535C15.808 34.0288 15.8726 34.0546 15.9565 34.0288C16.0318 34.0051 16.0964 33.9664 16.0986 33.8803C16.1007 33.7856 16.105 33.6866 16.0813 33.5962C15.9996 33.2841 15.907 32.9721 15.8145 32.6621C15.78 32.5459 15.7478 32.434 15.8295 32.3264C15.8424 32.3092 15.8597 32.2963 15.8747 32.2834C15.8898 32.3049 15.9156 32.3221 15.9221 32.3458C15.9974 32.6234 16.0706 32.901 16.1438 33.1765C16.1847 33.3336 16.2298 33.4886 16.2707 33.6457C16.3159 33.82 16.4365 33.9104 16.6086 33.9104C16.9767 33.9104 17.3189 33.7985 17.646 33.6414C17.6611 33.6349 17.6783 33.607 17.674 33.5919C17.6718 33.579 17.6438 33.5596 17.6266 33.5596C17.547 33.5596 17.4652 33.5596 17.3856 33.5725C17.3103 33.5833 17.3167 33.5489 17.3296 33.4972C17.3598 33.3939 17.4071 33.3143 17.5169 33.2712C17.6116 33.2346 17.6977 33.1744 17.788 33.1227C17.8827 33.0689 18.0312 33.0302 18.0592 32.9527C18.0958 32.8494 18.0377 32.7138 18.0162 32.5911C18.0033 32.5179 17.9731 32.4491 17.9688 32.3759C17.9645 32.3135 17.9796 32.2489 18.0011 32.1908C18.0226 32.1327 18.0721 32.1413 18.1001 32.1865C18.169 32.307 18.2336 32.4319 18.296 32.5567C18.3024 32.5718 18.2895 32.5954 18.2852 32.6148C18.1862 32.5782 18.169 32.632 18.1862 32.7116C18.2142 32.8343 18.2422 32.9635 18.3821 33.0087C18.4617 33.0345 18.4875 33.0646 18.4552 33.1507C18.4294 33.2196 18.41 33.2562 18.3347 33.211C18.1647 33.1098 18.0097 33.1529 17.8655 33.2648C17.8397 33.2841 17.8225 33.3143 17.8031 33.3401C17.8375 33.3487 17.8698 33.3638 17.9043 33.3659C18.0958 33.3724 18.2874 33.3724 18.4789 33.381C18.5306 33.3831 18.6123 33.3465 18.6209 33.4348C18.6296 33.5101 18.5973 33.5725 18.5069 33.5984C18.3842 33.6328 18.3799 33.6522 18.4531 33.7469C18.5112 33.8222 18.5758 33.8954 18.6489 33.9535C18.7307 34.018 18.7974 34.0008 18.8469 33.9061C18.9223 33.7641 18.9868 33.6156 19.0514 33.4671C19.0944 33.3702 19.1332 33.2605 19.2515 33.2583C19.3635 33.2562 19.3936 33.3745 19.4431 33.4499C19.4797 33.5037 19.5034 33.5682 19.5227 33.6306C19.5808 33.805 19.71 33.8824 19.8821 33.9169C20.106 33.9621 20.3233 33.9363 20.5343 33.8652C20.7366 33.7985 20.9324 33.7124 21.1283 33.6306C21.2294 33.5897 21.2703 33.5144 21.2488 33.4004C21.2036 33.155 21.1649 32.9075 21.1218 32.6621C21.1003 32.5373 21.1261 32.4276 21.2101 32.335C21.2273 32.3156 21.2596 32.3092 21.2854 32.2963C21.294 32.3199 21.3134 32.3458 21.3112 32.3694C21.2832 32.5352 21.3521 32.6708 21.4339 32.8042C21.4533 32.8343 21.5307 32.914 21.3973 32.9075C21.3908 32.9075 21.3736 32.9678 21.3758 32.9979C21.3822 33.1227 21.3973 33.2475 21.4059 33.3724C21.421 33.5876 21.3306 33.7361 21.1369 33.8351C20.771 34.0223 20.3965 34.1515 19.9747 34.1343C19.7035 34.1235 19.5077 34.0266 19.4044 33.7684C19.3828 33.7146 19.3549 33.6608 19.3247 33.6113C19.2494 33.4886 19.1999 33.4886 19.1267 33.6177C19.0966 33.6694 19.0837 33.7275 19.0535 33.7791C19.0019 33.8674 18.9545 33.9621 18.8857 34.0374C18.7802 34.1536 18.6661 34.1579 18.5628 34.0396C18.4768 33.9427 18.4014 33.8286 18.3498 33.7081C18.3067 33.6048 18.2551 33.5919 18.1668 33.6306C18.0183 33.6974 17.8698 33.7598 17.7235 33.8308C17.4652 33.9556 17.2177 34.102 16.925 34.145C16.6926 34.1795 16.4687 34.1988 16.2858 34.0073C16.2729 33.9944 16.2169 33.9987 16.204 34.0137C16.1653 34.0568 16.1438 34.1149 16.1072 34.1622C15.9953 34.3021 15.8747 34.315 15.7564 34.1838C15.681 34.0977 15.6294 33.9901 15.5734 33.8868C15.5476 33.8394 15.5261 33.8351 15.5002 33.8781C15.4507 33.9599 15.3991 34.0417 15.3582 34.1278C15.2915 34.2634 15.1774 34.3387 15.044 34.3925C14.8697 34.4635 14.7534 34.4097 14.7104 34.229C14.6889 34.1386 14.6975 34.0396 14.6996 33.9449C14.6996 33.8932 14.7211 33.8437 14.7255 33.7921C14.7255 33.7662 14.7104 33.7382 14.7039 33.7103C14.6781 33.7189 14.6501 33.7232 14.6286 33.7383C14.592 33.7641 14.564 33.7985 14.5274 33.8222C14.422 33.8911 14.3682 33.8911 14.2843 33.7899C14.2326 33.7253 14.1982 33.7296 14.1422 33.7705C13.9829 33.8889 13.8258 34.0116 13.6623 34.1235C13.4427 34.272 13.2017 34.3538 12.9305 34.2978C12.7131 34.2526 12.5689 34.1127 12.4463 33.9406C12.4204 33.9061 12.3903 33.876 12.3602 33.8437C12.33 33.8824 12.2892 33.919 12.2741 33.9642C12.2289 34.1106 12.2009 34.2655 12.1514 34.4097C12.1213 34.498 12.0761 34.5884 12.0137 34.6551C11.9276 34.7498 11.8049 34.7326 11.7274 34.6314C11.622 34.4937 11.5725 34.3323 11.5488 34.1622C11.5466 34.1472 11.5617 34.1278 11.5703 34.1106C11.5854 34.1256 11.6069 34.1364 11.6155 34.1536C11.6564 34.2397 11.6822 34.3366 11.736 34.414C11.7726 34.4678 11.8479 34.5195 11.9082 34.5217C11.9448 34.5217 12.0029 34.4399 12.0244 34.3839C12.0718 34.2526 12.0955 34.1127 12.1363 33.9793C12.2353 33.6543 12.3365 33.6242 12.5582 33.8695C12.8229 34.1644 13.0683 34.2096 13.531 33.9707C13.7247 33.8717 13.8882 33.7167 14.0669 33.5854C14.1013 33.5596 14.1314 33.5252 14.1659 33.4994C14.2347 33.4499 14.2972 33.4305 14.3402 33.5316C14.366 33.5919 14.4069 33.6306 14.4779 33.6048C14.5597 33.5747 14.5597 33.5058 14.5447 33.4391C14.5318 33.3831 14.5102 33.325 14.4801 33.2755C14.4414 33.2088 14.4521 33.1507 14.4909 33.0904C14.5167 33.0474 14.5447 33.0409 14.5662 33.0883C14.62 33.2088 14.6652 33.3336 14.7233 33.452C14.7836 33.5768 14.8374 33.5984 14.9471 33.5725C15.0655 33.5446 15.087 33.4951 15.0009 33.409C14.9278 33.3379 14.8933 33.2798 14.9493 33.183C14.9902 33.112 15.0289 33.1249 15.0677 33.1722C15.1753 33.2992 15.2054 33.4499 15.1602 33.607C15.1236 33.7383 15.0182 33.7813 14.889 33.7942C14.7857 33.805 14.7341 33.919 14.7599 34.0482C14.7836 34.1579 14.8632 34.2182 14.9687 34.1859C15.0311 34.1687 15.0913 34.1343 15.1408 34.0934C15.2807 33.9771 15.369 33.8222 15.4185 33.65C15.4378 33.5768 15.4249 33.4886 15.4034 33.4154C15.3754 33.325 15.3367 33.2325 15.2786 33.1572C15.1667 33.013 15.1774 32.8774 15.2915 32.6987L15.3001 32.6966Z" fill="black"/>
<path d="M23.642 33.9018C23.6226 33.6306 23.6011 33.3594 23.5817 33.0882C23.5752 32.9978 23.5817 32.9118 23.6549 32.845C23.6958 32.8085 23.7367 32.7977 23.7539 32.8601C23.7905 32.9957 23.8184 33.1313 23.8486 33.2669C23.8529 33.2884 23.855 33.325 23.8464 33.3293C23.685 33.4154 23.7797 33.5553 23.7732 33.6715C23.7625 33.8544 23.7776 34.0417 23.7517 34.2225C23.7345 34.3408 23.685 34.4657 23.6161 34.5647C23.5021 34.7282 23.2955 34.7132 23.2029 34.5367C23.1427 34.4205 23.1125 34.2892 23.0738 34.1643C23.0544 34.1041 23.0329 34.0955 22.9834 34.1364C22.8693 34.2289 22.7553 34.3236 22.639 34.4118C22.6046 34.4377 22.5616 34.4527 22.5228 34.4721C22.3011 34.5819 22.0838 34.5216 22.1182 34.2074C22.1225 34.1708 22.129 34.1321 22.1225 34.0976C22.1182 34.0804 22.0816 34.0567 22.0665 34.061C22.017 34.0761 21.9697 34.0976 21.9267 34.1235C21.6318 34.2935 21.3068 34.3473 20.9754 34.3753C20.956 34.3753 20.9345 34.3645 20.913 34.3602C20.9302 34.3451 20.9452 34.3193 20.9668 34.315C21.2939 34.2461 21.606 34.1364 21.8901 33.962C22.0278 33.8781 22.1569 33.7813 22.2882 33.6844C22.3076 33.6715 22.3119 33.6371 22.3162 33.6112C22.3162 33.6048 22.2796 33.5897 22.2581 33.5897C22.2 33.5854 22.1397 33.5919 22.0816 33.5832C21.931 33.5596 21.8815 33.4821 21.9245 33.3336C21.9396 33.2776 21.9589 33.2174 21.9934 33.1743C22.0881 33.0581 22.2796 33.0753 22.3442 33.2088C22.4496 33.4304 22.4776 33.6586 22.3463 33.8846C22.3033 33.9599 22.2538 34.0374 22.228 34.1191C22.1892 34.244 22.2538 34.3236 22.3851 34.315C22.4475 34.3107 22.525 34.2935 22.5702 34.2547C22.7101 34.1278 22.8435 33.99 22.9683 33.8458C22.9963 33.8135 22.9855 33.7339 22.9726 33.6823C22.9403 33.5617 22.8844 33.4477 22.8586 33.325C22.8413 33.2432 22.8564 33.1528 22.8607 33.0667C22.8607 33.0495 22.8844 33.0323 22.8995 33.0151C22.9145 33.0301 22.936 33.043 22.9425 33.0624C23.0092 33.2497 23.0781 33.4347 23.134 33.6263C23.1792 33.7812 23.2008 33.9427 23.246 34.0976C23.2739 34.1945 23.317 34.2935 23.3772 34.3731C23.4095 34.4162 23.4935 34.442 23.5494 34.4355C23.5817 34.4312 23.6226 34.3494 23.6269 34.2999C23.6377 34.1686 23.6312 34.0352 23.6312 33.9018C23.6355 33.9018 23.642 33.9018 23.6463 33.9018H23.642Z" fill="black"/>
<path d="M12.3773 33.4736C12.401 33.4284 12.4182 33.3596 12.4613 33.3208C12.5839 33.2154 12.7131 33.1207 12.8465 33.0303C13.0144 32.9141 13.038 32.8603 12.9498 32.6902C12.924 32.6386 12.8745 32.5977 12.9197 32.5331C12.9283 32.5224 12.9412 32.5137 12.952 32.503C12.9864 32.5568 13.023 32.6084 13.051 32.6622C13.0639 32.6859 13.0617 32.7204 13.0617 32.7483C13.066 32.8387 13.1069 32.843 13.1758 32.8043C13.3846 32.6816 13.5933 32.5589 13.8042 32.4406C13.8494 32.4147 13.9054 32.4061 13.957 32.3889C13.9398 32.4492 13.9312 32.5137 13.9032 32.5697C13.8903 32.5977 13.8451 32.6127 13.815 32.6321C13.4427 32.8689 13.0703 33.1013 12.7023 33.3423C12.6227 33.394 12.5581 33.465 12.4849 33.5253C12.4634 33.5425 12.4376 33.5554 12.4139 33.5705C12.4053 33.5447 12.3945 33.5188 12.3795 33.4715L12.3773 33.4736Z" fill="black"/>
<path d="M24.1112 33.8544C24.1112 33.6262 24.1112 33.4002 24.1112 33.1721C24.1112 33.1205 24.1026 33.0645 24.122 33.0215C24.1457 32.9655 24.193 32.9203 24.2318 32.8687C24.2554 32.9182 24.2856 32.9634 24.3006 33.015C24.3329 33.1205 24.3566 33.2281 24.3824 33.3335C24.3953 33.3916 24.4642 33.4777 24.32 33.4734C24.3092 33.4734 24.2899 33.5466 24.2856 33.5875C24.2683 33.807 24.264 34.0265 24.2339 34.2439C24.2167 34.373 24.165 34.4979 24.1285 34.6227C24.122 34.6399 24.1026 34.655 24.0876 34.6701C24.0811 34.6464 24.066 34.6227 24.066 34.599C24.0811 34.3515 24.1005 34.1019 24.1177 33.8544C24.1134 33.8544 24.1091 33.8544 24.1069 33.8544H24.1112Z" fill="black"/>
<path d="M18.8921 32.7137C18.8254 32.7245 18.8211 32.7653 18.8254 32.8256C18.8383 33.0085 18.8448 33.1915 18.8491 33.3744C18.8491 33.454 18.8534 33.538 18.8362 33.6155C18.8211 33.6929 18.7824 33.7683 18.7544 33.8436C18.7479 33.7726 18.7393 33.7016 18.735 33.6305C18.7157 33.2647 18.6683 32.9009 18.5671 32.5458C18.5585 32.5178 18.5456 32.4899 18.5456 32.4619C18.5413 32.3822 18.5155 32.2811 18.6059 32.2467C18.7049 32.2079 18.7157 32.3263 18.7436 32.3801C18.8017 32.4877 18.8383 32.6039 18.8835 32.718L18.8878 32.7137H18.8921Z" fill="black"/>
<path d="M17.6718 32.2124C17.6051 32.3136 17.5814 32.391 17.5276 32.4233C17.151 32.6644 16.7701 32.8947 16.3891 33.1292C16.3654 33.1443 16.3375 33.1529 16.3095 33.1637C16.303 33.1292 16.2815 33.0905 16.2923 33.0647C16.3116 33.0152 16.3396 32.9549 16.3827 32.9291C16.7615 32.6923 17.1424 32.4599 17.5255 32.2296C17.5492 32.2146 17.5879 32.221 17.6697 32.2146L17.6718 32.2124Z" fill="black"/>
<path d="M19.598 33.239C19.5894 33.2153 19.5722 33.1938 19.5765 33.1744C19.5937 33.0776 19.6324 32.9958 19.7293 32.9484C19.9294 32.8537 20.1231 32.7483 20.3211 32.6514C20.4933 32.5675 20.6677 32.4879 20.842 32.4061C20.9087 32.3738 20.9431 32.3975 20.9259 32.4663C20.9152 32.5094 20.8872 32.5632 20.8506 32.5826C20.461 32.7913 20.0693 32.9936 19.6776 33.1981C19.6583 33.2089 19.6389 33.2175 19.6002 33.2347L19.598 33.239Z" fill="black"/>
<path d="M11.6994 33.6738C11.6994 33.6437 11.6908 33.62 11.6994 33.6092C11.7661 33.5425 11.8393 33.4801 11.906 33.4112C11.9727 33.3423 12.0351 33.2713 12.0932 33.196C12.1449 33.1271 12.1987 33.0582 12.0997 32.97C12.0653 32.9399 12.0696 32.843 12.0825 32.7828C12.1148 32.6364 12.2288 32.5977 12.3472 32.6881C12.3881 32.7182 12.4225 32.7591 12.4527 32.8C12.528 32.9011 12.5194 32.9592 12.4053 33.0023C12.3214 33.0324 12.2783 33.0841 12.2331 33.1573C12.1191 33.3466 11.9813 33.521 11.7855 33.635C11.7618 33.6501 11.7338 33.6587 11.6972 33.6759L11.6994 33.6738Z" fill="black"/>
<path d="M20.1124 32.5568C20.1059 32.5762 20.1037 32.602 20.0908 32.6149C19.8907 32.7871 19.6905 32.9657 19.4129 33.0002C19.3957 33.0023 19.3763 32.9894 19.3569 32.9829C19.3698 32.9657 19.3785 32.9442 19.3957 32.9356C19.5183 32.871 19.6496 32.8172 19.7659 32.744C19.9057 32.6558 19.9057 32.6407 19.824 32.4922C19.7831 32.4191 19.8003 32.3545 19.8498 32.3136C19.9014 32.2706 19.9768 32.2533 20.0435 32.234C20.0521 32.2318 20.0887 32.2727 20.0908 32.2942C20.0973 32.3825 20.093 32.4686 20.093 32.5568C20.0994 32.5568 20.1081 32.5568 20.1145 32.5568H20.1124Z" fill="black"/>
<path d="M13.3846 33.5832C13.3523 33.6155 13.3158 33.6585 13.2684 33.6929C13.2404 33.7123 13.1995 33.7123 13.1651 33.7274C12.9843 33.8113 12.9843 33.8113 12.8681 33.6564C12.8487 33.6284 12.8207 33.6026 12.7906 33.5896C12.7239 33.5595 12.754 33.5208 12.7755 33.4863C12.8078 33.4325 12.8509 33.4498 12.881 33.4863C12.9133 33.5251 12.9327 33.5746 12.9671 33.6133C12.98 33.6284 13.0166 33.6305 13.0403 33.6284C13.0489 33.6284 13.0618 33.5896 13.0553 33.5724C13.0403 33.5251 13.0037 33.4799 12.9994 33.4325C12.9951 33.3981 13.0295 33.3572 13.0467 33.3206C13.0747 33.3443 13.107 33.3637 13.1285 33.3916C13.1457 33.4132 13.1414 33.4498 13.1565 33.4734C13.1823 33.5143 13.2167 33.5488 13.2469 33.5853C13.2426 33.5401 13.2426 33.4949 13.234 33.4498C13.2297 33.4218 13.2017 33.3916 13.2081 33.368C13.2167 33.3378 13.2426 33.3099 13.2706 33.2926C13.2792 33.2862 13.3265 33.3163 13.333 33.3357C13.3523 33.4046 13.3609 33.4777 13.3803 33.581L13.3846 33.5832Z" fill="black"/>
<path d="M14.4263 32.7117C14.5253 32.6515 14.5984 32.6084 14.6695 32.5611C14.6845 32.5525 14.6867 32.5245 14.6953 32.5073C14.6759 32.5008 14.6565 32.4879 14.635 32.4879C14.607 32.4879 14.5769 32.4965 14.5489 32.4987C14.4994 32.503 14.4198 32.5675 14.4069 32.4944C14.3983 32.4449 14.465 32.3652 14.5188 32.3243C14.5597 32.292 14.6286 32.2942 14.6867 32.2856C14.7598 32.2748 14.8481 32.2662 14.8782 32.348C14.8954 32.3997 14.8782 32.4793 14.8481 32.5309C14.762 32.6794 14.6156 32.7139 14.4263 32.7117Z" fill="black"/>
<path d="M14.1487 32.8859C14.1487 32.8859 14.125 32.9268 14.1185 32.9247C13.9614 32.8773 13.9851 33.0043 13.9614 33.0839C13.9464 33.1399 13.9356 33.1958 13.9227 33.2518C13.884 33.2131 13.8517 33.1636 13.8086 33.1356C13.757 33.1033 13.6946 33.0818 13.6365 33.0624C13.5826 33.0452 13.5288 33.0194 13.559 32.9613C13.574 32.9333 13.6408 32.9204 13.6838 32.9182C13.7161 32.9182 13.7505 32.944 13.7806 32.9634C13.8474 33.0108 13.8883 33.0194 13.9076 32.9161C13.9184 32.8666 13.97 32.8192 14.0152 32.7869C14.0712 32.746 14.1444 32.7998 14.1487 32.8838V32.8859Z" fill="black"/>
<path d="M20.0586 33.1012C20.1038 33.084 20.1469 33.0517 20.1662 33.0624C20.2394 33.1055 20.3061 33.1614 20.375 33.2109C20.4116 33.1399 20.4396 33.0646 20.4848 33C20.4955 32.985 20.5795 32.9914 20.5924 33.0108C20.6117 33.0388 20.5967 33.127 20.5924 33.127C20.4137 33.1335 20.4675 33.2734 20.4482 33.3724C20.446 33.3874 20.4482 33.4025 20.4417 33.4154C20.4374 33.4283 20.4267 33.452 20.4223 33.452C20.403 33.4477 20.3728 33.4434 20.3642 33.4283C20.3104 33.3315 20.2566 33.2389 20.1253 33.226C20.1017 33.2239 20.0845 33.1571 20.0543 33.099L20.0586 33.1012Z" fill="black"/>
<path d="M22.4927 33.013C22.4281 32.9958 22.3421 33.0001 22.3012 32.9592C22.2646 32.9226 22.2753 32.8387 22.2667 32.7741C22.2667 32.7655 22.2839 32.7504 22.2947 32.7504C22.3055 32.7504 22.3162 32.7634 22.3248 32.7741C22.3291 32.7784 22.327 32.7892 22.3291 32.7956C22.3399 32.8473 22.3162 32.9312 22.4066 32.9183C22.4841 32.9054 22.4626 32.8301 22.4669 32.7741C22.4669 32.7526 22.4927 32.7311 22.5056 32.7096C22.5228 32.7289 22.5444 32.7461 22.5573 32.7677C22.568 32.7849 22.568 32.8107 22.5766 32.8301C22.5809 32.8408 22.596 32.8494 22.6068 32.8581C22.6175 32.843 22.6304 32.8301 22.6391 32.815C22.6606 32.7741 22.6799 32.7311 22.6993 32.6902C22.7122 32.7418 22.7381 32.7913 22.7359 32.8408C22.7294 32.9807 22.7251 32.9786 22.4906 33.0152L22.4927 33.013Z" fill="black"/>
<path d="M19.2752 32.7804C19.2236 32.789 19.1095 32.6556 19.1332 32.5975C19.159 32.5351 19.1698 32.4899 19.1181 32.4404C19.0643 32.3887 19.0944 32.3435 19.1418 32.3155C19.1719 32.2962 19.2365 32.2811 19.2516 32.2962C19.2903 32.3371 19.3914 32.3694 19.3376 32.4447C19.2903 32.5114 19.3011 32.5351 19.357 32.5846C19.4108 32.6319 19.3484 32.7675 19.2752 32.7804Z" fill="black"/>
<path d="M16.9788 33.7943C16.9551 33.7813 16.9293 33.777 16.9185 33.7598C16.8755 33.6845 16.8454 33.6049 16.7399 33.5855C16.7162 33.5812 16.699 33.5145 16.6947 33.4736C16.6947 33.4585 16.7485 33.4198 16.7657 33.4262C16.8045 33.4391 16.8411 33.4714 16.8712 33.5016C16.9228 33.5554 16.9551 33.5554 16.9637 33.4736C16.9637 33.4585 16.9637 33.4413 16.9702 33.4305C16.9939 33.4004 17.0218 33.3681 17.052 33.3444C17.0584 33.338 17.1015 33.3595 17.1036 33.3724C17.1144 33.4198 17.1251 33.508 17.1165 33.5102C16.9831 33.5468 17.0348 33.6587 17.0111 33.7404C17.0046 33.7598 16.9896 33.7749 16.9766 33.7943H16.9788Z" fill="black"/>
<path d="M17.5211 32.645C17.5319 32.6622 17.5491 32.6773 17.5491 32.6923C17.5577 32.787 17.5878 32.8645 17.6933 32.8839C17.7126 32.8882 17.7385 32.8796 17.7514 32.8688C17.7578 32.8624 17.7514 32.8236 17.7428 32.8172C17.6653 32.7741 17.6502 32.7117 17.6739 32.6321C17.7342 32.6751 17.8073 32.7074 17.8504 32.7655C17.8762 32.8 17.8698 32.8796 17.8461 32.9248C17.8095 32.9958 17.6804 33.0238 17.6115 32.9958C17.5168 32.9571 17.4501 32.772 17.4974 32.673C17.4996 32.6665 17.506 32.6622 17.519 32.6471L17.5211 32.645Z" fill="black"/>
<path d="M13.9936 34.3625C13.929 34.4055 13.8559 34.4787 13.8365 34.4658C13.7483 34.412 13.7031 34.4593 13.6471 34.5088C13.5804 34.5669 13.5395 34.4981 13.5029 34.4636C13.4878 34.4486 13.4986 34.3862 13.5158 34.3582C13.5373 34.3216 13.561 34.2441 13.6256 34.3001C13.6944 34.3625 13.7332 34.3474 13.7805 34.2786C13.7956 34.257 13.8473 34.2355 13.8645 34.2463C13.9054 34.2678 13.9376 34.3087 13.9936 34.3625Z" fill="black"/>
<path d="M18.1388 34.2203C18.1022 34.1794 18.0591 34.1514 18.0398 34.1105C18.0096 34.0481 17.9967 33.9771 17.9774 33.9082C17.9731 33.8953 17.9774 33.8717 17.9881 33.863C18.0247 33.8286 18.0634 33.792 18.1065 33.7662C18.1237 33.7554 18.156 33.7683 18.1818 33.7705C18.1775 33.7942 18.1797 33.82 18.1689 33.8394C18.1581 33.8566 18.1216 33.8652 18.1194 33.8803C18.1108 33.9405 18.1086 34.0029 18.1043 34.0653C18.1581 34.0653 18.2119 34.0697 18.2636 34.0675C18.2916 34.0675 18.3196 34.0567 18.3454 34.0524C18.3303 34.0761 18.3196 34.1062 18.298 34.1235C18.2528 34.1579 18.2012 34.1837 18.1366 34.2203H18.1388Z" fill="black"/>
<path d="M14.1185 34.4142C14.1013 34.3733 14.0798 34.3453 14.0863 34.3302C14.1013 34.2936 14.1228 34.2484 14.1551 34.2291C14.2649 34.158 14.379 34.0935 14.4909 34.0289C14.5059 34.0203 14.5382 34.0203 14.5447 34.0289C14.5533 34.044 14.5576 34.0806 14.549 34.087C14.4134 34.1925 14.2735 34.2958 14.1164 34.412L14.1185 34.4142Z" fill="black"/>
<path d="M21.6124 32.8127C21.5931 32.7955 21.5758 32.7848 21.5651 32.7697C21.5608 32.7654 21.5759 32.7396 21.5845 32.7353C21.7846 32.6728 21.9869 32.6104 22.1871 32.5523C22.2 32.548 22.2194 32.5695 22.2323 32.5846C22.2344 32.5868 22.2215 32.6126 22.2129 32.6169C22.0127 32.6836 21.8126 32.746 21.6103 32.8106L21.6124 32.8127Z" fill="black"/>
<path d="M11.411 33.3078C11.4131 33.1421 11.4669 33.0323 11.553 32.9376C11.5659 32.9247 11.5874 32.9183 11.6047 32.9097C11.6047 32.9269 11.609 32.9484 11.6025 32.9635C11.5745 33.0302 11.5272 33.0926 11.5143 33.1615C11.5014 33.2303 11.4411 33.3423 11.5939 33.3509C11.5961 33.3509 11.6068 33.4025 11.5982 33.4219C11.5702 33.4779 11.5121 33.4929 11.4734 33.4477C11.4346 33.4025 11.4217 33.3337 11.4088 33.3057L11.411 33.3078Z" fill="black"/>
<path d="M16.7183 32.2639C16.6688 32.3543 16.6215 32.4383 16.5741 32.5244C16.572 32.5287 16.5418 32.5244 16.5375 32.5179C16.4966 32.4297 16.4084 32.4103 16.3309 32.378C16.318 32.3716 16.3029 32.3328 16.3094 32.3264C16.3266 32.307 16.3524 32.2941 16.3761 32.2855C16.3869 32.2812 16.4063 32.2919 16.4149 32.3005C16.5182 32.4232 16.572 32.3716 16.6129 32.2489C16.6193 32.2317 16.6559 32.2188 16.6796 32.2188C16.6925 32.2188 16.7054 32.2467 16.7183 32.2618V32.2639Z" fill="black"/>
<path d="M16.7291 33.168C16.7054 33.2046 16.6903 33.239 16.6645 33.2605C16.5956 33.3165 16.5246 33.366 16.4514 33.4155C16.4321 33.4284 16.4041 33.4263 16.3826 33.4306C16.3826 33.4026 16.3675 33.366 16.3783 33.3466C16.445 33.2369 16.5461 33.1701 16.671 33.1379C16.6839 33.1357 16.7011 33.1551 16.7291 33.1701V33.168Z" fill="black"/>
<path d="M12.5345 34.3302C12.5409 34.3797 12.4828 34.4744 12.6141 34.4701C12.6119 34.5045 12.6206 34.554 12.6012 34.5734C12.5775 34.5971 12.5194 34.6164 12.4957 34.6035C12.4118 34.5562 12.4182 34.2592 12.5 34.2032C12.5065 34.1989 12.5409 34.2204 12.5431 34.2333C12.5474 34.2613 12.5388 34.2893 12.5345 34.3323V34.3302Z" fill="black"/>
<path d="M14.8933 33.9794C14.9105 33.9902 14.8696 33.9751 14.8696 33.9622C14.8696 33.9321 14.8825 33.8847 14.9062 33.8718C14.9557 33.846 15.0117 33.8266 15.0676 33.8245C15.0999 33.8245 15.1344 33.8589 15.1666 33.8761C15.1451 33.9106 15.13 33.9644 15.0999 33.973C15.0526 33.9902 14.9945 33.9773 14.8933 33.9773V33.9794Z" fill="black"/>
<path d="M23.358 32.8883C23.3644 32.9851 23.3235 33.0217 23.2568 33.0303C23.1686 33.0411 23.1385 32.983 23.1406 32.9076C23.1406 32.8796 23.175 32.828 23.1858 32.8301C23.2482 32.8431 23.3063 32.8689 23.358 32.8861V32.8883Z" fill="black"/>
<path d="M21.4897 33.7898C21.5027 33.7339 21.5091 33.6973 21.5199 33.6628C21.5242 33.6521 21.5392 33.6392 21.5522 33.6392C21.5608 33.6392 21.5801 33.6564 21.578 33.6607C21.5586 33.7446 21.5715 33.8135 21.6512 33.8608C21.6533 33.8608 21.6426 33.9039 21.6296 33.9125C21.6167 33.9211 21.5801 33.9233 21.5737 33.9125C21.5414 33.8694 21.5134 33.8221 21.4919 33.7855L21.4897 33.7898Z" fill="black"/>
<path d="M19.2042 34.046C19.1999 34.0848 19.1956 34.1256 19.1891 34.1644C19.1891 34.1644 19.1526 34.1644 19.1504 34.1622C19.1353 34.1106 19.1224 34.0589 19.116 34.0073C19.116 33.9901 19.1332 33.9685 19.1483 33.9535C19.1612 33.9406 19.1827 33.9319 19.1999 33.9233C19.1999 33.9427 19.2064 33.9621 19.2042 33.9815C19.2042 34.003 19.1978 34.0245 19.1934 34.046H19.2042Z" fill="black"/>
<path d="M15.2914 32.4643C15.3044 32.4536 15.2914 32.4751 15.2721 32.4772C15.2462 32.4815 15.2118 32.4772 15.1967 32.4643C15.1645 32.4299 15.2312 32.2642 15.2764 32.2642C15.2807 32.2642 15.2893 32.2835 15.2893 32.2921C15.2893 32.3395 15.2893 32.3868 15.2893 32.4643H15.2914Z" fill="black"/>
<path d="M22.6585 33.635C22.695 33.6759 22.7273 33.7039 22.7467 33.7405C22.7532 33.7512 22.7273 33.7814 22.7166 33.805C22.6972 33.7921 22.6628 33.7835 22.6606 33.7684C22.652 33.7276 22.6585 33.6845 22.6585 33.635Z" fill="black"/>
<path d="M23.4505 33.8976C23.4333 33.9169 23.4204 33.9298 23.4075 33.9449C23.3903 33.9212 23.3644 33.8997 23.3601 33.8717C23.3558 33.8545 23.3795 33.8308 23.3924 33.8093C23.4118 33.8373 23.4312 33.8653 23.4527 33.8976H23.4505Z" fill="black"/>
<path d="M18.8878 32.7182C18.8878 32.7182 18.905 32.7289 18.9136 32.7332C18.9093 32.7332 18.9007 32.7332 18.8986 32.7332C18.8943 32.7289 18.8943 32.7203 18.8921 32.7139L18.8878 32.7182Z" fill="black"/>
</g>
<defs>
<linearGradient id="paint0_linear_199_67" x1="14.6685" y1="17.4677" x2="19.6285" y2="27.2022" gradientUnits="userSpaceOnUse">
<stop stop-color="#CD8C5D"/>
<stop offset="0.76" stop-color="#FEC00F"/>
<stop offset="1" stop-color="#FEC00F"/>
</linearGradient>
<linearGradient id="paint1_linear_199_67" x1="22.8655" y1="30.7564" x2="15.7815" y2="22.8885" gradientUnits="userSpaceOnUse">
<stop stop-color="#CD8C5D"/>
<stop offset="0.75" stop-color="#FEC00F"/>
<stop offset="1" stop-color="#FEC00F"/>
</linearGradient>
<linearGradient id="paint2_linear_199_67" x1="20.0295" y1="26.6219" x2="16.8764" y2="23.8817" gradientUnits="userSpaceOnUse">
<stop stop-color="#CD8C5D"/>
<stop offset="0.86" stop-color="#FEC00F"/>
<stop offset="1" stop-color="#FEC00F"/>
</linearGradient>
<linearGradient id="paint3_linear_199_67" x1="23.2843" y1="23.2594" x2="19.144" y2="25.8441" gradientUnits="userSpaceOnUse">
<stop stop-color="#CD8C5D"/>
<stop offset="0.83" stop-color="#FEC00F"/>
<stop offset="1" stop-color="#FEC00F"/>
</linearGradient>
<linearGradient id="paint4_linear_199_67" x1="20.8851" y1="19.9328" x2="21.7586" y2="23.4449" gradientUnits="userSpaceOnUse">
<stop stop-color="#CD8C5D"/>
<stop offset="0.9" stop-color="#FEC00F"/>
<stop offset="1" stop-color="#FEC00F"/>
</linearGradient>
<linearGradient id="paint5_linear_199_67" x1="18.0491" y1="20.5731" x2="19.8141" y2="20.6987" gradientUnits="userSpaceOnUse">
<stop stop-color="#CD8C5D"/>
<stop offset="0.94" stop-color="#FEC00F"/>
<stop offset="1" stop-color="#FEC00F"/>
</linearGradient>
<linearGradient id="paint6_linear_199_67" x1="16.6729" y1="23.4629" x2="17.4806" y2="21.5602" gradientUnits="userSpaceOnUse">
<stop stop-color="#CD8C5D"/>
<stop offset="0.86" stop-color="#FEC00F"/>
<stop offset="1" stop-color="#FEC00F"/>
</linearGradient>
<clipPath id="clip0_199_67">
<rect width="36" height="40.6595" fill="white" transform="translate(0 0.170166)"/>
</clipPath>
</defs>
</svg>
